<svg width="24" height="29" viewBox="0 0 24 29" fill="none" xmlns="http://www.w3.org/2000/svg">
<path d="M12 0.000782013C9.08258 0.00422383 6.28559 1.16471 4.22263 3.22767C2.15966 5.29063 0.999181 8.08762 0.995739 11.0051C0.992245 13.3892 1.77102 15.7087 3.21261 17.6077C3.21261 17.6077 3.51272 18.0028 3.56174 18.0598L12 28.0117L20.4423 18.0548C20.4864 18.0018 20.7875 17.6077 20.7875 17.6077L20.7885 17.6047C22.2293 15.7065 23.0078 13.3881 23.0043 11.0051C23.0009 8.08762 21.8404 5.29063 19.7775 3.22767C17.7145 1.16471 14.9175 0.00422383 12 0.000782013ZM15.6015 16.007L12 13.7151L8.39864 16.007L8.99887 11.9314L5.9977 9.17737L10.1993 8.67017L12 5.00274L13.9128 8.67117L18.0024 9.17737L15.0012 11.9314L15.6015 16.007Z" fill="#AD8255"/>
</svg>
