<svg width="94" height="657" viewBox="0 0 94 657" fill="none" xmlns="http://www.w3.org/2000/svg">
<path d="M35.816 100.32C34.792 100.32 33.224 97.888 31.112 93.024C19.144 65.12 13.16 43.168 13.16 27.168C13.16 19.808 14.408 13.888 16.904 9.408C20.36 3.264 25.96 0.191997 33.704 0.191997C40.808 0.191997 49.064 5.12 58.472 14.976C66.408 23.232 73.64 33.248 80.168 45.024C86.376 56.16 89.48 64.192 89.48 69.12C89.48 72.768 87.24 74.592 82.76 74.592C80.84 74.592 79.592 74.464 79.016 74.208C78.056 73.888 76.84 72.896 75.368 71.232C74.984 70.784 72.296 65.216 67.304 54.528C62.056 43.456 57.064 34.88 52.328 28.8C45.288 19.904 38.184 15.456 31.016 15.456C27.496 15.456 25 17.632 23.528 21.984C22.632 24.608 22.184 27.616 22.184 31.008C22.184 36.448 22.952 42.816 24.488 50.112C25.768 55.936 26.952 60.16 28.04 62.784C30.408 67.264 33.736 74.112 38.024 83.328C40.52 89.472 41.768 92.672 41.768 92.928C41.768 93.952 41.032 95.424 39.56 97.344C38.152 99.328 36.904 100.32 35.816 100.32ZM61.544 179.189C58.984 179.189 56.808 177.173 55.016 173.141C53.608 170.069 52.904 167.509 52.904 165.461L52.904 145.204C51.304 144.372 49.672 143.572 48.008 142.805C45.64 141.78 43.592 141.268 41.864 141.268L18.536 141.268C17.128 141.268 15.976 140.084 15.08 137.716C14.44 136.052 14.12 134.612 14.12 133.396C14.12 130.644 15.304 128.436 17.672 126.772C19.528 125.428 21.352 124.756 23.144 124.756C23.528 124.756 26.92 125.204 33.32 126.1C40.296 127.188 45.992 127.892 50.408 128.212C50.216 126.804 50.12 124.948 50.12 122.644C50.12 121.108 50.152 119.188 50.216 116.884C50.344 114.58 50.408 113.332 50.408 113.14C50.408 107.892 47.208 104.756 40.808 103.732C34.856 103.412 28.904 103.124 22.952 102.868C16.488 102.292 13.256 99.9565 13.256 95.8605C13.256 91.8285 17.032 89.8125 24.584 89.8125C25.544 89.8125 26.568 89.8445 27.656 89.9085C28.808 89.9725 29.384 90.0045 29.384 90.0045C51.144 90.0045 70.248 93.6525 86.696 100.948C87.08 102.293 87.272 103.54 87.272 104.692C87.272 109.237 83.976 111.509 77.384 111.508C75.464 111.508 73.032 111.316 70.088 110.932C68.04 110.612 65.96 110.324 63.848 110.068C63.528 111.092 63.4 113.14 63.464 116.212C63.528 120.565 63.56 122.517 63.56 122.069C63.368 127.316 63.944 130.9 65.288 132.82C66.888 133.588 70.184 134.421 75.176 135.317C79.976 136.149 83.368 137.077 85.352 138.101C88.488 139.765 90.056 142.325 90.056 145.78C90.056 148.341 89.128 150.357 87.272 151.829C85.736 153.045 83.912 153.653 81.8 153.653C81.096 153.653 79.08 152.885 75.752 151.349C71.784 149.493 69.064 148.309 67.592 147.797C67.08 153.621 66.6 159.445 66.152 165.268C65.192 174.549 63.656 179.189 61.544 179.189ZM49.832 258.497C46.44 257.857 44.264 257.185 43.304 256.481C42.344 255.777 41.864 254.593 41.864 252.929C41.864 252.545 41.896 251.745 41.96 250.529C42.024 249.313 42.056 248.289 42.056 247.457C42.056 247.585 41.928 246.433 41.672 244.001C41.48 242.017 41.48 240.641 41.672 239.873C38.664 239.489 35.656 239.105 32.648 238.721C26.44 237.825 21.48 236.641 17.768 235.169C12.52 233.121 9.89599 230.625 9.89599 227.681C9.89599 223.329 15.048 221.153 25.352 221.153C27.912 221.153 30.792 221.281 33.992 221.537C37.256 221.857 38.792 222.017 38.6 222.017C38.728 221.889 38.984 221.825 39.368 221.825C39.816 221.889 40.04 221.697 40.04 221.249C40.04 219.905 39.624 216.161 38.792 210.017C37.704 202.337 36.552 196.449 35.336 192.353C35.272 192.033 33.8 190.817 30.92 188.705C27.528 186.209 25.576 184.737 25.064 184.289C21.736 181.793 18.408 179.297 15.08 176.801C11.624 173.985 9.89599 170.817 9.89599 167.297C9.89599 162.113 12.328 159.521 17.192 159.521C21.288 159.521 32.584 169.601 51.08 189.761C61.64 201.729 72.2 213.665 82.76 225.569C83.784 226.785 84.648 228.609 85.352 231.041C85.928 233.281 86.216 235.361 86.216 237.281C86.216 240.481 85.032 242.497 82.664 243.329C81.64 243.713 79.304 243.905 75.656 243.905L51.848 241.985L51.848 255.329C51.912 256.673 51.24 257.729 49.832 258.497ZM52.424 222.689C54.856 222.433 57.288 222.177 59.72 221.921C62.728 221.601 64.808 220.833 65.96 219.617C64.232 217.249 61.448 214.433 57.608 211.169C54.6 208.737 51.624 206.305 48.68 203.873L52.424 222.689ZM88.04 348.1C85.352 348.1 78.408 345.7 67.208 340.9C55.048 335.716 44.648 330.468 36.008 325.156C25.32 318.564 19.976 313.284 19.976 309.316C19.976 305.796 23.272 302.084 29.864 298.18C34.6 295.364 40.968 292.484 48.968 289.54C53 288.132 57.032 286.724 61.064 285.316C52.808 281.412 40.232 277.124 23.336 272.452C21.992 272.132 20.584 270.852 19.112 268.612C17.64 266.436 16.904 264.772 16.904 263.62C16.904 260.74 18.216 258.532 20.84 256.996C22.76 255.844 24.872 255.268 27.176 255.268C30.568 255.268 33.672 255.844 36.488 256.996C43.592 259.94 53.48 264.868 66.152 271.78C73.832 275.94 79.592 279.844 83.432 283.492C83.944 284.004 84.328 285.252 84.584 287.236C84.968 290.116 85.224 291.812 85.352 292.324C74.024 299.3 58.504 303.748 38.792 305.668C38.024 306.5 36.808 307.812 35.144 309.604C41.608 313.316 51.432 317.924 64.616 323.428C72.936 326.948 78.152 329.252 80.264 330.34C89.224 335.204 93.704 339.844 93.704 344.26C93.704 346.18 92.904 347.396 91.304 347.908C90.92 348.036 89.832 348.1 88.04 348.1ZM65.864 440.776C57.992 440.776 50.12 434.632 42.248 422.344C36.552 413.576 31.176 402.12 26.12 387.976C25.992 387.592 24.008 381.384 20.168 369.352C18.952 365.576 16.968 360.36 14.216 353.704C12.744 350.056 12.008 346.952 12.008 344.392C12.008 341.832 12.488 340.168 13.448 339.4C14.216 338.824 15.72 338.536 17.96 338.536C22.76 338.536 30.28 340.104 40.52 343.24C50.824 346.376 58.12 347.944 62.408 347.944C64.904 347.944 67.144 347.592 69.128 346.888C70.216 347.592 70.76 348.904 70.76 350.824C70.76 351.784 70.6 352.84 70.28 353.992C71.56 354.952 73.864 355.752 77.192 356.392C80.968 357.032 83.432 357.64 84.584 358.216C86.952 359.368 88.136 361.224 88.136 363.784C88.136 364.488 88.04 365.288 87.848 366.184C86.952 367.4 85.512 368.008 83.528 368.008L82.952 368.008C81.544 368.008 80.392 368.168 79.496 368.488C84.232 377.64 87.048 384.008 87.944 387.592C88.52 390.024 88.808 395.336 88.808 403.528C88.808 413.384 87.816 421 85.832 426.376C82.376 435.976 75.72 440.776 65.864 440.776ZM63.08 428.776C68.136 428.776 72.04 424.584 74.792 416.2C76.712 410.312 77.672 404.648 77.672 399.208C77.672 390.568 75.848 382.728 72.2 375.688C70.984 373.32 69.768 370.92 68.552 368.488C66.952 365.672 65.768 364.072 65 363.688C60.456 361.384 54.504 359.272 47.144 357.352C41 355.816 34.856 354.28 28.712 352.744C31.464 362.472 35.688 376.808 41.384 395.752C48.424 417.768 55.656 428.776 63.08 428.776ZM28.808 504.386C27.656 504.386 25.8 503.554 23.24 501.889C20.296 500.098 18.824 498.402 18.824 496.802C18.824 496.993 19.24 495.041 20.072 490.945C20.904 486.849 21.32 482.337 21.32 477.41C21.32 469.921 20.296 461.409 18.248 451.873C16.264 442.337 15.272 435.233 15.272 430.561C15.272 428.321 15.496 426.753 15.944 425.857C16.584 424.577 17.96 423.937 20.072 423.937C20.264 423.937 22.984 425.121 28.232 427.489C34.248 430.177 39.304 432.161 43.4 433.441C54.856 436.833 69.576 439.969 87.56 442.85C90.568 443.298 92.072 444.962 92.072 447.842C92.072 449.058 91.432 450.338 90.152 451.681C72.168 451.874 53.48 448.065 34.088 440.257C34.28 441.537 34.952 445.601 36.104 452.449C37.128 458.081 37.64 461.185 37.64 461.761C37.64 470.146 37.288 477.698 36.584 484.418C35.112 497.73 32.52 504.386 28.808 504.386ZM54.152 575.597C52.552 568.173 50.984 557.677 49.448 544.109C48.488 535.277 46.984 529.324 44.936 526.252C42.312 522.284 37.064 519.436 29.192 517.708C28.552 518.86 28.232 521.26 28.232 524.908C28.232 525.676 29.8 530.444 32.936 539.212C36.136 547.98 37.736 552.748 37.736 553.516C37.736 555.821 37.48 557.484 36.968 558.508C36.2 560.3 34.44 562.028 31.688 563.692C26.696 561.004 21.768 553.996 16.904 542.668C12.296 531.852 9.99198 522.828 9.99198 515.596C9.99198 510.604 10.856 506.956 12.584 504.652C14.632 502.028 18.088 500.716 22.952 500.716C29.224 500.716 40.744 503.628 57.512 509.452C73.384 514.956 82.152 518.669 83.816 520.589C85.8 522.765 86.792 529.101 86.792 539.597C86.792 545.037 86.6 548.493 86.216 549.965C85.448 553.165 83.368 556.173 79.976 558.988L75.656 557.453C75.4 555.789 75.272 553.612 75.272 550.925C75.272 550.348 75.304 549.421 75.368 548.141C75.368 546.925 75.368 545.997 75.368 545.357C75.368 539.916 74.728 536.012 73.448 533.644C71.656 530.188 68.264 528.461 63.272 528.46L59.24 528.364C59.176 532.204 59.496 538.636 60.2 547.661C60.904 557.133 61.256 563.373 61.256 566.381C61.256 568.749 60.776 570.957 59.816 573.005C58.856 575.117 57.608 576.173 56.072 576.173C55.432 576.173 54.792 575.981 54.152 575.597ZM72.104 656.593C68.136 656.593 64.872 653.713 62.312 647.953C60.456 643.793 59.048 638.321 58.088 631.537C57.768 628.273 57.448 625.041 57.128 621.841C55.08 625.617 53.064 629.393 51.08 633.169C47.944 638.801 45.032 643.121 42.344 646.129C38.632 650.225 35.016 652.273 31.496 652.273C29.96 652.273 28.584 652.017 27.368 651.505C25.768 650.801 24.968 649.809 24.968 648.529C24.968 647.889 26.728 646.001 30.248 642.865C33.768 639.729 35.624 637.809 35.816 637.105L42.92 609.265C42.92 607.793 43.304 605.585 44.072 602.641C45.16 598.801 46.408 596.881 47.816 596.881C52.36 596.881 56.328 600.593 59.72 608.017C60.616 610.065 61.992 614.289 63.848 620.689C64.936 624.273 65.832 626.993 66.536 628.849C68.136 632.881 69.768 635.665 71.432 637.201C72.52 636.817 73.064 635.345 73.064 632.785C73.064 627.857 71.88 621.105 69.512 612.529C66.888 603.185 64.392 598.001 62.024 596.977C56.264 594.353 46.856 590.193 33.8 584.497C31.688 583.601 27.848 582.673 22.28 581.713C19.848 581.393 17.448 581.073 15.08 580.753C10.088 579.857 6.05597 578.673 2.98397 577.201C-1.24003 575.153 -3.35203 572.625 -3.35203 569.617C-3.35203 568.785 -2.71203 567.697 -1.43202 566.353C5.22397 566.097 11.464 566.705 17.288 568.177C20.68 569.073 26.568 571.121 34.952 574.321C44.168 577.905 52.584 580.817 60.2 583.057C60.392 582.737 60.808 581.329 61.448 578.833C62.024 576.913 62.536 575.921 62.984 575.857C64.136 575.729 65.672 575.953 67.592 576.529C70.472 577.361 72.072 577.777 72.392 577.777C72.392 577.841 72.968 579.377 74.12 582.385C74.888 584.433 75.624 585.713 76.328 586.225C77.864 587.185 79.368 588.177 80.84 589.201C82.12 590.353 82.76 592.145 82.76 594.577C82.76 594.961 82.536 596.785 82.088 600.049C81.64 603.377 81.416 605.297 81.416 605.809C81.416 606.385 82.056 608.337 83.336 611.665C84.936 615.761 86.12 619.249 86.888 622.129C88.168 626.929 88.808 631.409 88.808 635.569C88.808 640.561 87.56 645.073 85.064 649.105C81.992 654.097 77.672 656.593 72.104 656.593Z" fill="#343434"/>
</svg>
