<svg width="86" height="239" viewBox="0 0 86 239" fill="none" xmlns="http://www.w3.org/2000/svg">
<path d="M74.528 59.08C64.928 59.08 52.608 56.584 37.568 51.592C22.08 46.408 12 41.224 7.328 36.04C5.984 34.568 5.312 31.912 5.312 28.072C5.312 23.72 6.24 18.408 8.096 12.136C10.528 4.072 13.472 0.0399964 16.928 0.0399966C18.592 0.0399966 20.512 0.391997 22.688 1.096C25.312 2.056 26.528 3.144 26.336 4.36C26.016 7.112 24.96 9.16 23.168 10.504C21.632 11.464 20.096 12.392 18.56 13.288C17.024 14.696 16.256 16.936 16.256 20.008C16.256 22.952 16.576 25.288 17.216 27.016C18.304 29.832 20.448 32.104 23.648 33.832C26.464 35.368 32.928 36.968 43.04 38.632C56.992 40.936 64.48 42.216 65.504 42.472C67.488 42.92 69.6 43.176 71.84 43.24C73.888 43.304 75.936 43.368 77.984 43.432C80.096 43.56 82.016 44.2 83.744 45.352C83.808 46.376 83.84 47.336 83.84 48.232C83.84 52.776 82.72 55.88 80.48 57.544C79.136 58.568 77.152 59.08 74.528 59.08ZM44.576 121.584C34.272 121.584 24.704 118.256 15.872 111.599C5.888 104.111 0.895996 94.7995 0.895996 83.6635C0.895997 74.9595 3.424 68.1435 8.48 63.2155C13.344 58.5435 19.84 56.2075 27.968 56.2075C31.232 56.2075 37.056 57.3595 45.44 59.6635C55.744 62.5435 64.16 65.9035 70.688 69.7435C79.328 74.7355 83.648 80.0475 83.648 85.6795C83.648 95.8555 80.064 104.336 72.896 111.12C65.536 118.096 56.096 121.584 44.576 121.584ZM40.832 104.975C45.888 105.232 52.32 103.888 60.128 100.944C69.152 97.4875 73.664 93.6155 73.664 89.3275C73.664 85.8075 70.24 82.4155 63.392 79.1515C58.08 76.7195 51.296 74.5755 43.04 72.7195C36.256 71.1835 31.456 70.4155 28.64 70.4155C25.44 70.4155 22.304 70.9275 19.232 71.9515C13.792 73.8715 11.072 77.0395 11.072 81.4555C11.072 88.3675 13.92 93.9675 19.616 98.2555C25.056 102.287 32.128 104.527 40.832 104.975ZM45.152 196.347C43.552 188.923 41.984 178.427 40.448 164.859C39.488 156.027 37.984 150.074 35.936 147.002C33.312 143.034 28.064 140.186 20.192 138.458C19.552 139.61 19.232 142.01 19.232 145.658C19.232 146.426 20.8 151.194 23.936 159.962C27.136 168.73 28.736 173.498 28.736 174.266C28.736 176.571 28.48 178.234 27.968 179.258C27.2 181.05 25.44 182.778 22.688 184.442C17.696 181.754 12.768 174.746 7.90399 163.418C3.29599 152.602 0.991993 143.578 0.991993 136.346C0.991994 131.354 1.85599 127.706 3.58399 125.402C5.63199 122.778 9.08799 121.466 13.952 121.466C20.224 121.466 31.744 124.378 48.512 130.202C64.384 135.706 73.152 139.419 74.816 141.339C76.8 143.515 77.792 149.851 77.792 160.347C77.792 165.787 77.6 169.243 77.216 170.715C76.448 173.915 74.368 176.923 70.976 179.738L66.656 178.203C66.4 176.539 66.272 174.362 66.272 171.675C66.272 171.098 66.304 170.171 66.368 168.891C66.368 167.675 66.368 166.747 66.368 166.107C66.368 160.666 65.728 156.762 64.448 154.394C62.656 150.938 59.264 149.211 54.272 149.21L50.24 149.114C50.176 152.954 50.496 159.386 51.2 168.411C51.904 177.883 52.256 184.123 52.256 187.131C52.256 189.499 51.776 191.707 50.816 193.755C49.856 195.867 48.608 196.923 47.072 196.923C46.432 196.923 45.792 196.731 45.152 196.347ZM79.616 238.079C73.6 237.695 67.712 235.551 61.952 231.647C57.6 228.639 53.184 224.575 48.704 219.455C45.76 215.807 42.848 212.159 39.968 208.511C38.752 207.039 34.112 205.471 26.048 203.807C18.624 202.335 12.608 201.567 7.99999 201.503C6.71999 200.927 6.07999 199.167 6.07999 196.223C6.07999 194.111 8.47999 193.055 13.28 193.055C15.264 193.055 19.328 193.343 25.472 193.919C31.36 194.431 35.808 194.655 38.816 194.591C40.608 194.527 43.744 193.407 48.224 191.231C52.704 189.055 55.2 187.935 55.712 187.871C63.264 186.975 68.576 186.527 71.648 186.527C78.24 186.527 82.88 187.647 85.568 189.887L84.8 195.647C83.392 196.671 81.44 197.183 78.944 197.183C78.048 197.183 76.672 197.087 74.816 196.895C73.024 196.767 71.744 196.703 70.976 196.703C70.08 196.703 69.344 196.767 68.768 196.895L48.416 202.463C51.04 206.367 57.376 212.479 67.424 220.799C76.448 228.223 81.024 232.447 81.152 233.471C81.28 235.455 80.768 236.991 79.616 238.079Z" fill="#343434"/>
</svg>
