<svg width="43" height="120" viewBox="0 0 43 120" fill="none" xmlns="http://www.w3.org/2000/svg">
<path d="M37.264 30.04C32.464 30.04 26.304 28.792 18.784 26.296C11.04 23.704 6 21.112 3.664 18.52C2.992 17.784 2.656 16.456 2.656 14.536C2.656 12.36 3.12 9.704 4.048 6.568C5.264 2.536 6.736 0.519998 8.464 0.519998C9.296 0.519998 10.256 0.695998 11.344 1.048C12.656 1.528 13.264 2.072 13.168 2.68C13.008 4.056 12.48 5.08 11.584 5.752C10.816 6.232 10.048 6.696 9.28 7.144C8.512 7.848 8.128 8.968 8.128 10.504C8.128 11.976 8.288 13.144 8.608 14.008C9.152 15.416 10.224 16.552 11.824 17.416C13.232 18.184 16.464 18.984 21.52 19.816C28.496 20.968 32.24 21.608 32.752 21.736C33.744 21.96 34.8 22.088 35.92 22.12C36.944 22.152 37.968 22.184 38.992 22.216C40.048 22.28 41.008 22.6 41.872 23.176C41.904 23.688 41.92 24.168 41.92 24.616C41.92 26.888 41.36 28.44 40.24 29.272C39.568 29.784 38.576 30.04 37.264 30.04ZM22.288 61.2918C17.136 61.2918 12.352 59.6278 7.936 56.2997C2.944 52.5557 0.447998 47.8997 0.447998 42.3317C0.447998 37.9797 1.712 34.5717 4.24 32.1077C6.672 29.7717 9.92 28.6037 13.984 28.6037C15.616 28.6037 18.528 29.1797 22.72 30.3317C27.872 31.7717 32.08 33.4517 35.344 35.3717C39.664 37.8678 41.824 40.5238 41.824 43.3398C41.824 48.4278 40.032 52.6678 36.448 56.0598C32.768 59.5478 28.048 61.2918 22.288 61.2918ZM20.416 52.9877C22.944 53.1158 26.16 52.4438 30.064 50.9718C34.576 49.2438 36.832 47.3077 36.832 45.1637C36.832 43.4038 35.12 41.7078 31.696 40.0757C29.04 38.8597 25.648 37.7877 21.52 36.8597C18.128 36.0917 15.728 35.7077 14.32 35.7077C12.72 35.7077 11.152 35.9637 9.616 36.4757C6.896 37.4357 5.536 39.0197 5.536 41.2277C5.536 44.6837 6.96 47.4837 9.808 49.6277C12.528 51.6437 16.064 52.7637 20.416 52.9877ZM22.576 98.6733C21.776 94.9613 20.992 89.7133 20.224 82.9293C19.744 78.5133 18.992 75.5372 17.968 74.0012C16.656 72.0172 14.032 70.5932 10.096 69.7292C9.776 70.3052 9.616 71.5052 9.616 73.3292C9.616 73.7132 10.4 76.0972 11.968 80.4812C13.568 84.8652 14.368 87.2492 14.368 87.6332C14.368 88.7853 14.24 89.6172 13.984 90.1292C13.6 91.0252 12.72 91.8892 11.344 92.7212C8.848 91.3772 6.384 87.8732 3.952 82.2092C1.648 76.8012 0.495997 72.2892 0.495997 68.6732C0.495997 66.1772 0.927997 64.3532 1.792 63.2012C2.816 61.8892 4.544 61.2332 6.976 61.2332C10.112 61.2332 15.872 62.6892 24.256 65.6012C32.192 68.3532 36.576 70.2093 37.408 71.1693C38.4 72.2573 38.896 75.4253 38.896 80.6733C38.896 83.3933 38.8 85.1213 38.608 85.8573C38.224 87.4573 37.184 88.9613 35.488 90.3692L33.328 89.6013C33.2 88.7693 33.136 87.6812 33.136 86.3373C33.136 86.0492 33.152 85.5853 33.184 84.9453C33.184 84.3373 33.184 83.8733 33.184 83.5533C33.184 80.8332 32.864 78.8812 32.224 77.6972C31.328 75.9692 29.632 75.1053 27.136 75.1052L25.12 75.0572C25.088 76.9772 25.248 80.1932 25.6 84.7053C25.952 89.4413 26.128 92.5613 26.128 94.0653C26.128 95.2493 25.888 96.3533 25.408 97.3773C24.928 98.4333 24.304 98.9613 23.536 98.9613C23.216 98.9613 22.896 98.8653 22.576 98.6733ZM39.808 119.539C36.8 119.347 33.856 118.275 30.976 116.323C28.8 114.819 26.592 112.787 24.352 110.227C22.88 108.403 21.424 106.579 19.984 104.755C19.376 104.019 17.056 103.235 13.024 102.403C9.312 101.667 6.304 101.283 4 101.251C3.36 100.963 3.04 100.083 3.04 98.6114C3.04 97.5554 4.24 97.0274 6.64 97.0274C7.632 97.0274 9.664 97.1714 12.736 97.4594C15.68 97.7154 17.904 97.8274 19.408 97.7954C20.304 97.7634 21.872 97.2034 24.112 96.1154C26.352 95.0274 27.6 94.4674 27.856 94.4354C31.632 93.9874 34.288 93.7634 35.824 93.7634C39.12 93.7634 41.44 94.3234 42.784 95.4434L42.4 98.3234C41.696 98.8354 40.72 99.0914 39.472 99.0914C39.024 99.0914 38.336 99.0434 37.408 98.9474C36.512 98.8834 35.872 98.8514 35.488 98.8514C35.04 98.8514 34.672 98.8834 34.384 98.9474L24.208 101.731C25.52 103.683 28.688 106.739 33.712 110.899C38.224 114.611 40.512 116.723 40.576 117.235C40.64 118.227 40.384 118.995 39.808 119.539Z" fill="#343434"/>
</svg>
