<svg width="44" height="229" viewBox="0 0 44 229" fill="none" xmlns="http://www.w3.org/2000/svg">
<path d="M26.648 51.984C25.464 51.6 22.088 50.144 16.52 47.616C11.336 45.28 7.96 43.92 6.392 43.536C6.136 43.472 5.8 43.44 5.384 43.44C4.968 43.44 4.216 43.488 3.128 43.584C2.04 43.712 1.208 43.776 0.631998 43.776C-2.184 43.776 -3.592 42.592 -3.592 40.224C-3.592 39.488 -3.176 38.784 -2.344 38.112C-1.512 37.44 -0.648002 37.104 0.247998 37.104C0.535998 37.104 0.791998 37.152 1.016 37.248L25.544 44.592C25.864 44.752 26.072 44.832 26.168 44.832C26.2 44.832 26.216 44.816 26.216 44.784C26.184 44.72 26.072 44.608 25.88 44.448C22.712 40.704 19.528 36.96 16.328 33.216C11.176 26.752 8.6 22.432 8.6 20.256C8.6 17.792 13.064 15.2 21.992 12.48C19.976 11.136 17.512 9.936 14.6 8.88C13.96 8.656 11.464 7.872 7.112 6.528C6.408 6.304 5.464 5.712 4.28 4.752C3.096 3.824 2.504 3.136 2.504 2.688C2.504 1.376 2.968 0.543998 3.896 0.191998C4.248 0.0639981 5.048 -1.87749e-06 6.296 -1.82294e-06C6.776 -1.80196e-06 9.4 1.008 14.168 3.024C19.48 5.232 23.976 7.28 27.656 9.168C32.424 11.632 34.808 13.328 34.808 14.256C34.808 16.208 33.336 17.76 30.392 18.912C28.312 19.712 25.448 20.32 21.8 20.736C19.88 20.928 17.976 21.12 16.088 21.312C19.064 25.472 22.04 29.616 25.016 33.744C30.328 41.328 32.984 46.016 32.984 47.808C32.984 49.056 32.312 50.096 30.968 50.928C29.816 51.696 28.648 52.08 27.464 52.08C27.144 52.08 26.872 52.048 26.648 51.984ZM23.288 81.1043C18.136 81.1043 13.352 79.4403 8.936 76.1122C3.944 72.3682 1.448 67.7122 1.448 62.1442C1.448 57.7922 2.712 54.3842 5.24 51.9202C7.672 49.5842 10.92 48.4162 14.984 48.4162C16.616 48.4162 19.528 48.9922 23.72 50.1442C28.872 51.5842 33.08 53.2642 36.344 55.1842C40.664 57.6803 42.824 60.3363 42.824 63.1523C42.824 68.2403 41.032 72.4803 37.448 75.8723C33.768 79.3603 29.048 81.1043 23.288 81.1043ZM21.416 72.8002C23.944 72.9283 27.16 72.2563 31.064 70.7843C35.576 69.0563 37.832 67.1202 37.832 64.9762C37.832 63.2163 36.12 61.5203 32.696 59.8882C30.04 58.6722 26.648 57.6002 22.52 56.6722C19.128 55.9042 16.728 55.5202 15.32 55.5202C13.72 55.5202 12.152 55.7762 10.616 56.2882C7.896 57.2482 6.536 58.8322 6.536 61.0402C6.536 64.4962 7.96 67.2962 10.808 69.4402C13.528 71.4562 17.064 72.5762 21.416 72.8002ZM40.52 127.222C39.176 127.222 35.704 126.022 30.104 123.622C24.024 121.03 18.824 118.406 14.504 115.75C9.16 112.454 6.488 109.814 6.488 107.83C6.488 106.07 8.136 104.214 11.432 102.262C13.8 100.854 16.984 99.4137 20.984 97.9417C23 97.2377 25.016 96.5338 27.032 95.8297C22.904 93.8777 16.616 91.7337 8.168 89.3977C7.496 89.2377 6.792 88.5977 6.056 87.4777C5.32 86.3897 4.952 85.5577 4.952 84.9817C4.952 83.5417 5.608 82.4377 6.92 81.6697C7.88 81.0937 8.936 80.8057 10.088 80.8057C11.784 80.8057 13.336 81.0937 14.744 81.6697C18.296 83.1417 23.24 85.6057 29.576 89.0617C33.416 91.1417 36.296 93.0937 38.216 94.9178C38.472 95.1737 38.664 95.7978 38.792 96.7898C38.984 98.2298 39.112 99.0778 39.176 99.3338C33.512 102.822 25.752 105.046 15.896 106.006C15.512 106.422 14.904 107.078 14.072 107.974C17.304 109.83 22.216 112.134 28.808 114.886C32.968 116.646 35.576 117.798 36.632 118.342C41.112 120.774 43.352 123.094 43.352 125.302C43.352 126.262 42.952 126.87 42.152 127.126C41.96 127.19 41.416 127.222 40.52 127.222ZM39.944 137.512C36.328 137.672 32.184 136.856 27.512 135.064C23.576 133.464 19.64 131.864 15.704 130.264C13.304 129.432 9.22399 128.536 3.46399 127.576C2.91999 126.84 2.64799 126.2 2.64799 125.656C2.64799 123.544 4.16799 122.488 7.20799 122.488C9.95999 122.488 12.84 123 15.848 124.024C17.32 124.504 20.568 125.816 25.592 127.96C30.648 130.104 35.384 131.928 39.8 133.432C40.408 134.2 40.712 134.984 40.712 135.784C40.712 136.36 40.456 136.936 39.944 137.512ZM14.408 186.988C13.896 186.988 13.112 185.772 12.056 183.34C6.07199 169.388 3.07999 158.412 3.07999 150.412C3.07999 146.732 3.70399 143.772 4.95199 141.532C6.67999 138.46 9.47999 136.924 13.352 136.924C16.904 136.924 21.032 139.388 25.736 144.316C29.704 148.444 33.32 153.452 36.584 159.34C39.688 164.908 41.24 168.924 41.24 171.388C41.24 173.212 40.12 174.124 37.88 174.124C36.92 174.124 36.296 174.06 36.008 173.932C35.528 173.772 34.92 173.276 34.184 172.444C33.992 172.22 32.648 169.436 30.152 164.092C27.528 158.556 25.032 154.268 22.664 151.228C19.144 146.78 15.592 144.556 12.008 144.556C10.248 144.556 8.99999 145.644 8.26399 147.82C7.81599 149.132 7.59199 150.636 7.59199 152.332C7.59199 155.052 7.97599 158.236 8.74399 161.884C9.38399 164.796 9.97599 166.908 10.52 168.22C11.704 170.46 13.368 173.884 15.512 178.492C16.76 181.564 17.384 183.164 17.384 183.292C17.384 183.804 17.016 184.54 16.28 185.5C15.576 186.492 14.952 186.988 14.408 186.988ZM21.416 228.342C19.72 228.022 18.632 227.686 18.152 227.334C17.672 226.982 17.432 226.39 17.432 225.558C17.432 225.366 17.448 224.966 17.48 224.358C17.512 223.75 17.528 223.238 17.528 222.822C17.528 222.886 17.464 222.31 17.336 221.094C17.24 220.102 17.24 219.414 17.336 219.03C15.832 218.838 14.328 218.646 12.824 218.454C9.71999 218.006 7.23999 217.414 5.38399 216.678C2.75999 215.654 1.44799 214.406 1.44799 212.934C1.44799 210.758 4.02399 209.67 9.17599 209.67C10.456 209.67 11.896 209.734 13.496 209.862C15.128 210.022 15.896 210.102 15.8 210.102C15.864 210.038 15.992 210.006 16.184 210.006C16.408 210.038 16.52 209.942 16.52 209.718C16.52 209.046 16.312 207.174 15.896 204.102C15.352 200.262 14.776 197.318 14.168 195.27C14.136 195.11 13.4 194.502 11.96 193.446C10.264 192.198 9.28799 191.462 9.03199 191.238C7.36799 189.99 5.70399 188.742 4.03999 187.494C2.31199 186.086 1.44799 184.502 1.44799 182.742C1.44799 180.15 2.66399 178.854 5.09599 178.854C7.14399 178.854 12.792 183.894 22.04 193.974C27.32 199.958 32.6 205.926 37.88 211.878C38.392 212.486 38.824 213.398 39.176 214.614C39.464 215.734 39.608 216.774 39.608 217.734C39.608 219.334 39.016 220.342 37.832 220.758C37.32 220.95 36.152 221.046 34.328 221.046L22.424 220.086L22.424 226.758C22.456 227.43 22.12 227.958 21.416 228.342ZM22.712 210.438C23.928 210.31 25.144 210.182 26.36 210.054C27.864 209.894 28.904 209.51 29.48 208.902C28.616 207.718 27.224 206.31 25.304 204.678C23.8 203.462 22.312 202.246 20.84 201.03L22.712 210.438Z" fill="#343434"/>
</svg>
