<svg width="94" height="457" viewBox="0 0 94 457" fill="none" xmlns="http://www.w3.org/2000/svg">
<path d="M60.296 103.968C57.928 103.2 51.176 100.288 40.04 95.232C29.672 90.56 22.92 87.84 19.784 87.072C19.272 86.944 18.6 86.88 17.768 86.88C16.936 86.88 15.432 86.976 13.256 87.168C11.08 87.424 9.416 87.552 8.264 87.552C2.632 87.552 -0.184004 85.184 -0.184004 80.448C-0.184004 78.976 0.647996 77.568 2.312 76.224C3.976 74.88 5.704 74.208 7.496 74.208C8.072 74.208 8.584 74.304 9.032 74.496L58.088 89.184C58.728 89.504 59.144 89.664 59.336 89.664C59.4 89.664 59.432 89.632 59.432 89.568C59.368 89.44 59.144 89.216 58.76 88.896C52.424 81.408 46.056 73.92 39.656 66.432C29.352 53.504 24.2 44.864 24.2 40.512C24.2 35.584 33.128 30.4 50.984 24.96C46.952 22.272 42.024 19.872 36.2 17.76C34.92 17.312 29.928 15.744 21.224 13.056C19.816 12.608 17.928 11.424 15.56 9.504C13.192 7.648 12.008 6.272 12.008 5.376C12.008 2.752 12.936 1.088 14.792 0.383996C15.496 0.127996 17.096 -3.75498e-06 19.592 -3.64588e-06C20.552 -3.60392e-06 25.8 2.016 35.336 6.048C45.96 10.464 54.952 14.56 62.312 18.336C71.848 23.264 76.616 26.656 76.616 28.512C76.616 32.416 73.672 35.52 67.784 37.824C63.624 39.424 57.896 40.64 50.6 41.472C46.76 41.856 42.952 42.24 39.176 42.624C45.128 50.944 51.08 59.232 57.032 67.488C67.656 82.656 72.968 92.032 72.968 95.616C72.968 98.112 71.624 100.192 68.936 101.856C66.632 103.392 64.296 104.16 61.928 104.16C61.288 104.16 60.744 104.096 60.296 103.968ZM53.576 162.209C43.272 162.209 33.704 158.881 24.872 152.224C14.888 144.736 9.89599 135.424 9.89599 124.288C9.89599 115.584 12.424 108.768 17.48 103.84C22.344 99.1685 28.84 96.8325 36.968 96.8325C40.232 96.8325 46.056 97.9845 54.44 100.288C64.744 103.168 73.16 106.528 79.688 110.368C88.328 115.361 92.648 120.673 92.648 126.305C92.648 136.481 89.064 144.961 81.896 151.745C74.536 158.721 65.096 162.209 53.576 162.209ZM49.832 145.6C54.888 145.857 61.32 144.513 69.128 141.569C78.152 138.113 82.664 134.24 82.664 129.952C82.664 126.433 79.24 123.041 72.392 119.776C67.08 117.344 60.296 115.2 52.04 113.344C45.256 111.808 40.456 111.04 37.64 111.04C34.44 111.04 31.304 111.552 28.232 112.576C22.792 114.496 20.072 117.664 20.072 122.08C20.072 128.992 22.92 134.592 28.616 138.88C34.056 142.912 41.128 145.152 49.832 145.6ZM88.04 254.444C85.352 254.444 78.408 252.044 67.208 247.244C55.048 242.06 44.648 236.812 36.008 231.5C25.32 224.907 19.976 219.627 19.976 215.66C19.976 212.139 23.272 208.427 29.864 204.523C34.6 201.707 40.968 198.827 48.968 195.883C53 194.475 57.032 193.068 61.064 191.659C52.808 187.755 40.232 183.467 23.336 178.795C21.992 178.475 20.584 177.195 19.112 174.955C17.64 172.779 16.904 171.115 16.904 169.963C16.904 167.083 18.216 164.875 20.84 163.339C22.76 162.187 24.872 161.611 27.176 161.611C30.568 161.611 33.672 162.187 36.488 163.339C43.592 166.283 53.48 171.211 66.152 178.123C73.832 182.283 79.592 186.187 83.432 189.836C83.944 190.347 84.328 191.596 84.584 193.58C84.968 196.46 85.224 198.156 85.352 198.668C74.024 205.644 58.504 210.092 38.792 212.012C38.024 212.843 36.808 214.155 35.144 215.947C41.608 219.659 51.432 224.268 64.616 229.772C72.936 233.292 78.152 235.596 80.264 236.684C89.224 241.548 93.704 246.188 93.704 250.604C93.704 252.524 92.904 253.74 91.304 254.252C90.92 254.38 89.832 254.444 88.04 254.444ZM86.888 275.024C79.656 275.344 71.368 273.711 62.024 270.127C54.152 266.927 46.28 263.727 38.408 260.527C33.608 258.863 25.448 257.071 13.928 255.151C12.84 253.679 12.296 252.399 12.296 251.311C12.296 247.087 15.336 244.975 21.416 244.975C26.92 244.975 32.68 245.999 38.696 248.047C41.64 249.007 48.136 251.631 58.184 255.919C68.296 260.207 77.768 263.856 86.6 266.863C87.816 268.4 88.424 269.968 88.424 271.567C88.424 272.719 87.912 273.872 86.888 275.024ZM35.816 373.976C34.792 373.976 33.224 371.544 31.112 366.68C19.144 338.776 13.16 316.824 13.16 300.824C13.16 293.464 14.408 287.544 16.904 283.064C20.36 276.92 25.96 273.848 33.704 273.848C40.808 273.848 49.064 278.776 58.472 288.632C66.408 296.888 73.64 306.904 80.168 318.68C86.376 329.816 89.48 337.848 89.48 342.776C89.48 346.424 87.24 348.248 82.76 348.248C80.84 348.248 79.592 348.12 79.016 347.864C78.056 347.544 76.84 346.552 75.368 344.888C74.984 344.44 72.296 338.872 67.304 328.184C62.056 317.112 57.064 308.536 52.328 302.456C45.288 293.56 38.184 289.112 31.016 289.112C27.496 289.112 25 291.288 23.528 295.64C22.632 298.264 22.184 301.272 22.184 304.664C22.184 310.104 22.952 316.472 24.488 323.768C25.768 329.592 26.952 333.816 28.04 336.44C30.408 340.92 33.736 347.768 38.024 356.984C40.52 363.128 41.768 366.328 41.768 366.584C41.768 367.608 41.032 369.08 39.56 371C38.152 372.984 36.904 373.976 35.816 373.976ZM49.832 456.685C46.44 456.045 44.264 455.373 43.304 454.669C42.344 453.965 41.864 452.781 41.864 451.117C41.864 450.733 41.896 449.933 41.96 448.717C42.024 447.501 42.056 446.477 42.056 445.645C42.056 445.773 41.928 444.621 41.672 442.189C41.48 440.205 41.48 438.829 41.672 438.061C38.664 437.677 35.656 437.293 32.648 436.909C26.44 436.013 21.48 434.829 17.768 433.357C12.52 431.309 9.89598 428.813 9.89598 425.869C9.89598 421.517 15.048 419.341 25.352 419.341C27.912 419.341 30.792 419.469 33.992 419.725C37.256 420.045 38.792 420.205 38.6 420.205C38.728 420.077 38.984 420.013 39.368 420.013C39.816 420.077 40.04 419.885 40.04 419.437C40.04 418.093 39.624 414.349 38.792 408.205C37.704 400.525 36.552 394.637 35.336 390.541C35.272 390.221 33.8 389.005 30.92 386.893C27.528 384.397 25.576 382.925 25.064 382.477C21.736 379.981 18.408 377.485 15.08 374.989C11.624 372.173 9.89598 369.005 9.89598 365.485C9.89598 360.301 12.328 357.709 17.192 357.709C21.288 357.709 32.584 367.789 51.08 387.949C61.64 399.917 72.2 411.853 82.76 423.757C83.784 424.973 84.648 426.797 85.352 429.229C85.928 431.469 86.216 433.549 86.216 435.469C86.216 438.669 85.032 440.685 82.664 441.517C81.64 441.901 79.304 442.093 75.656 442.093L51.848 440.173L51.848 453.517C51.912 454.861 51.24 455.917 49.832 456.685ZM52.424 420.877C54.856 420.621 57.288 420.365 59.72 420.109C62.728 419.789 64.808 419.021 65.96 417.805C64.232 415.437 61.448 412.621 57.608 409.357C54.6 406.925 51.624 404.493 48.68 402.061L52.424 420.877Z" fill="#343434"/>
</svg>
