<svg width="93" height="292" viewBox="0 0 93 292" fill="none" xmlns="http://www.w3.org/2000/svg">
<path d="M72.104 90.624C68.136 90.624 64.872 87.744 62.312 81.984C60.456 77.824 59.048 72.352 58.088 65.568C57.768 62.304 57.448 59.072 57.128 55.872C55.08 59.648 53.064 63.424 51.08 67.2C47.944 72.832 45.032 77.152 42.344 80.16C38.632 84.256 35.016 86.304 31.496 86.304C29.96 86.304 28.584 86.048 27.368 85.536C25.768 84.832 24.968 83.84 24.968 82.56C24.968 81.92 26.728 80.032 30.248 76.896C33.768 73.76 35.624 71.84 35.816 71.136L42.92 43.296C42.92 41.824 43.304 39.616 44.072 36.672C45.16 32.832 46.408 30.912 47.816 30.912C52.36 30.912 56.328 34.624 59.72 42.048C60.616 44.096 61.992 48.32 63.848 54.72C64.936 58.304 65.832 61.024 66.536 62.88C68.136 66.912 69.768 69.696 71.432 71.232C72.52 70.848 73.064 69.376 73.064 66.816C73.064 61.888 71.88 55.136 69.512 46.56C66.888 37.216 64.392 32.032 62.024 31.008C56.264 28.384 46.856 24.224 33.8 18.528C31.688 17.632 27.848 16.704 22.28 15.744C19.848 15.424 17.448 15.104 15.08 14.784C10.088 13.888 6.056 12.704 2.984 11.232C-1.24 9.184 -3.352 6.656 -3.352 3.648C-3.352 2.816 -2.712 1.728 -1.432 0.383995C5.224 0.127996 11.464 0.735996 17.288 2.208C20.68 3.104 26.568 5.152 34.952 8.352C44.168 11.936 52.584 14.848 60.2 17.088C60.392 16.768 60.808 15.36 61.448 12.864C62.024 10.944 62.536 9.952 62.984 9.888C64.136 9.76 65.672 9.984 67.592 10.56C70.472 11.392 72.072 11.808 72.392 11.808C72.392 11.872 72.968 13.408 74.12 16.416C74.888 18.464 75.624 19.744 76.328 20.256C77.864 21.216 79.368 22.208 80.84 23.232C82.12 24.384 82.76 26.176 82.76 28.608C82.76 28.992 82.536 30.816 82.088 34.08C81.64 37.408 81.416 39.328 81.416 39.84C81.416 40.416 82.056 42.368 83.336 45.696C84.936 49.792 86.12 53.28 86.888 56.16C88.168 60.96 88.808 65.44 88.808 69.6C88.808 74.592 87.56 79.104 85.064 83.136C81.992 88.128 77.672 90.624 72.104 90.624ZM53.576 151.99C43.272 151.99 33.704 148.662 24.872 142.006C14.888 134.518 9.89599 125.206 9.89599 114.07C9.896 105.366 12.424 98.5497 17.48 93.6217C22.344 88.9497 28.84 86.6137 36.968 86.6137C40.232 86.6137 46.056 87.7657 54.44 90.0697C64.744 92.9497 73.16 96.3097 79.688 100.15C88.328 105.142 92.648 110.454 92.648 116.086C92.648 126.262 89.064 134.742 81.896 141.526C74.536 148.502 65.096 151.99 53.576 151.99ZM49.832 135.382C54.888 135.638 61.32 134.294 69.128 131.35C78.152 127.894 82.664 124.022 82.664 119.734C82.664 116.214 79.24 112.822 72.392 109.558C67.08 107.126 60.296 104.982 52.04 103.126C45.256 101.59 40.456 100.822 37.64 100.822C34.44 100.822 31.304 101.334 28.232 102.358C22.792 104.278 20.072 107.446 20.072 111.862C20.072 118.774 22.92 124.374 28.616 128.662C34.056 132.694 41.128 134.934 49.832 135.382ZM29.096 223.489C23.592 223.489 18.792 219.745 14.696 212.257C11.624 206.689 9.12799 199.425 7.20799 190.465C5.79999 183.873 5.09599 179.041 5.09599 175.969C5.09599 174.753 5.51199 172.321 6.34399 168.673C7.30399 164.449 8.32799 161.057 9.41599 158.497L13.544 158.497C17.128 158.433 20.264 160.129 22.952 163.585L20.36 189.985C20.616 196.961 22.6 203.489 26.312 209.569L28.424 209.569C33.352 205.665 36.52 198.529 37.928 188.161C38.952 179.969 39.976 171.809 41 163.681C43.048 155.873 47.624 151.969 54.728 151.969C59.272 151.969 64.36 155.233 69.992 161.761C74.664 167.265 78.92 173.953 82.76 181.825C86.28 189.185 88.04 194.561 88.04 197.953C88.04 202.689 87.976 205.377 87.848 206.017C87.208 208.641 85.448 209.825 82.568 209.569C78.92 209.249 76.008 205.889 73.832 199.489C71.976 193.409 70.12 187.361 68.264 181.345C65.512 174.753 61.672 171.105 56.744 170.401C55.784 176.993 54.824 183.553 53.864 190.081C52.328 199.937 50.056 207.489 47.048 212.737C42.824 219.905 36.84 223.489 29.096 223.489ZM29.096 291.458C23.592 291.458 18.792 287.714 14.696 280.225C11.624 274.657 9.12799 267.393 7.20799 258.433C5.79999 251.841 5.09599 247.009 5.09599 243.937C5.09599 242.721 5.51199 240.289 6.34399 236.641C7.30399 232.417 8.32799 229.025 9.41599 226.465L13.544 226.465C17.128 226.401 20.264 228.097 22.952 231.553L20.36 257.953C20.616 264.929 22.6 271.457 26.312 277.537L28.424 277.537C33.352 273.633 36.52 266.497 37.928 256.129C38.952 247.937 39.976 239.777 41 231.649C43.048 223.841 47.624 219.937 54.728 219.937C59.272 219.937 64.36 223.201 69.992 229.729C74.664 235.233 78.92 241.922 82.76 249.794C86.28 257.154 88.04 262.53 88.04 265.922C88.04 270.658 87.976 273.346 87.848 273.986C87.208 276.61 85.448 277.794 82.568 277.538C78.92 277.218 76.008 273.858 73.832 267.458C71.976 261.378 70.12 255.329 68.264 249.314C65.512 242.721 61.672 239.073 56.744 238.369C55.784 244.961 54.824 251.521 53.864 258.049C52.328 267.905 50.056 275.457 47.048 280.705C42.824 287.874 36.84 291.458 29.096 291.458Z" fill="#343434"/>
</svg>
