<svg width="43" height="146" viewBox="0 0 43 146" fill="none" xmlns="http://www.w3.org/2000/svg">
<path d="M32.552 45.312C30.568 45.312 28.936 43.872 27.656 40.992C26.728 38.912 26.024 36.176 25.544 32.784C25.384 31.152 25.224 29.536 25.064 27.936C24.04 29.824 23.032 31.712 22.04 33.6C20.472 36.416 19.016 38.576 17.672 40.08C15.816 42.128 14.008 43.152 12.248 43.152C11.48 43.152 10.792 43.024 10.184 42.768C9.384 42.416 8.984 41.92 8.984 41.28C8.984 40.96 9.864 40.016 11.624 38.448C13.384 36.88 14.312 35.92 14.408 35.568L17.96 21.648C17.96 20.912 18.152 19.808 18.536 18.336C19.08 16.416 19.704 15.456 20.408 15.456C22.68 15.456 24.664 17.312 26.36 21.024C26.808 22.048 27.496 24.16 28.424 27.36C28.968 29.152 29.416 30.512 29.768 31.44C30.568 33.456 31.384 34.848 32.216 35.616C32.76 35.424 33.032 34.688 33.032 33.408C33.032 30.944 32.44 27.568 31.256 23.28C29.944 18.608 28.696 16.016 27.512 15.504C24.632 14.192 19.928 12.112 13.4 9.264C12.344 8.816 10.424 8.352 7.64 7.872C6.424 7.712 5.224 7.552 4.04 7.392C1.544 6.944 -0.472001 6.352 -2.008 5.616C-4.12 4.592 -5.176 3.328 -5.176 1.824C-5.176 1.408 -4.856 0.863998 -4.216 0.191998C-0.888 0.0639979 2.232 0.367998 5.144 1.104C6.84 1.552 9.784 2.576 13.976 4.176C18.584 5.968 22.792 7.424 26.6 8.544C26.696 8.384 26.904 7.68 27.224 6.432C27.512 5.472 27.768 4.976 27.992 4.944C28.568 4.88 29.336 4.992 30.296 5.28C31.736 5.696 32.536 5.904 32.696 5.904C32.696 5.936 32.984 6.704 33.56 8.208C33.944 9.232 34.312 9.872 34.664 10.128C35.432 10.608 36.184 11.104 36.92 11.616C37.56 12.192 37.88 13.088 37.88 14.304C37.88 14.496 37.768 15.408 37.544 17.04C37.32 18.704 37.208 19.664 37.208 19.92C37.208 20.208 37.528 21.184 38.168 22.848C38.968 24.896 39.56 26.64 39.944 28.08C40.584 30.48 40.904 32.72 40.904 34.8C40.904 37.296 40.28 39.552 39.032 41.568C37.496 44.064 35.336 45.312 32.552 45.312ZM23.288 75.9949C18.136 75.9949 13.352 74.3309 8.936 71.0029C3.944 67.2589 1.448 62.6029 1.448 57.0349C1.448 52.6829 2.712 49.2749 5.24 46.8109C7.672 44.4749 10.92 43.3069 14.984 43.3069C16.616 43.3069 19.528 43.8829 23.72 45.0349C28.872 46.4749 33.08 48.1549 36.344 50.0749C40.664 52.5709 42.824 55.2269 42.824 58.0429C42.824 63.1309 41.032 67.3709 37.448 70.7629C33.768 74.2509 29.048 75.9949 23.288 75.9949ZM21.416 67.6909C23.944 67.8189 27.16 67.1469 31.064 65.6749C35.576 63.9469 37.832 62.0109 37.832 59.8669C37.832 58.1069 36.12 56.4109 32.696 54.7789C30.04 53.5629 26.648 52.4909 22.52 51.5629C19.128 50.7949 16.728 50.4109 15.32 50.4109C13.72 50.4109 12.152 50.6669 10.616 51.1789C7.896 52.1389 6.536 53.7229 6.536 55.9309C6.536 59.3869 7.96 62.1869 10.808 64.3309C13.528 66.3469 17.064 67.4669 21.416 67.6909ZM11.048 111.744C8.296 111.744 5.896 109.872 3.848 106.128C2.312 103.344 1.064 99.7124 0.103996 95.2324C-0.600004 91.9364 -0.952004 89.5204 -0.952004 87.9844C-0.952004 87.3764 -0.744004 86.1604 -0.328004 84.3364C0.151996 82.2244 0.663996 80.5284 1.208 79.2484L3.272 79.2484C5.064 79.2164 6.632 80.0644 7.976 81.7924L6.68 94.9924C6.808 98.4804 7.8 101.744 9.656 104.784L10.712 104.784C13.176 102.832 14.76 99.2644 15.464 94.0804C15.976 89.9844 16.488 85.9044 17 81.8404C18.024 77.9364 20.312 75.9844 23.864 75.9844C26.136 75.9844 28.68 77.6164 31.496 80.8804C33.832 83.6324 35.96 86.9764 37.88 90.9124C39.64 94.5924 40.52 97.2804 40.52 98.9764C40.52 101.344 40.488 102.688 40.424 103.008C40.104 104.32 39.224 104.912 37.784 104.784C35.96 104.624 34.504 102.944 33.416 99.7444C32.488 96.7044 31.56 93.6804 30.632 90.6724C29.256 87.3764 27.336 85.5524 24.872 85.2004C24.392 88.4964 23.912 91.7764 23.432 95.0404C22.664 99.9684 21.528 103.744 20.024 106.368C17.912 109.952 14.92 111.744 11.048 111.744ZM11.048 145.729C8.29599 145.729 5.89599 143.857 3.84799 140.113C2.31199 137.329 1.06399 133.697 0.103994 129.217C-0.600006 125.921 -0.952006 123.505 -0.952006 121.969C-0.952006 121.361 -0.744006 120.145 -0.328006 118.321C0.151995 116.209 0.663995 114.513 1.20799 113.233L3.27199 113.233C5.064 113.201 6.632 114.049 7.976 115.777L6.67999 128.977C6.80799 132.465 7.79999 135.729 9.65599 138.769L10.712 138.769C13.176 136.817 14.76 133.249 15.464 128.065C15.976 123.969 16.488 119.889 17 115.825C18.024 111.921 20.312 109.969 23.864 109.969C26.136 109.969 28.68 111.601 31.496 114.865C33.832 117.617 35.96 120.961 37.88 124.897C39.64 128.577 40.52 131.265 40.52 132.961C40.52 135.329 40.488 136.673 40.424 136.993C40.104 138.305 39.224 138.897 37.784 138.769C35.96 138.609 34.504 136.929 33.416 133.729C32.488 130.689 31.56 127.665 30.632 124.657C29.256 121.361 27.336 119.537 24.872 119.185C24.392 122.481 23.912 125.761 23.432 129.025C22.664 133.953 21.528 137.729 20.024 140.353C17.912 143.937 14.92 145.729 11.048 145.729Z" fill="#343434"/>
</svg>
