<svg width="39" height="329" viewBox="0 0 39 329" fill="none" xmlns="http://www.w3.org/2000/svg">
<path d="M9.408 50.16C8.896 50.16 8.112 48.944 7.056 46.512C1.072 32.56 -1.92 21.584 -1.92 13.584C-1.92 9.904 -1.296 6.944 -0.0480002 4.704C1.68 1.632 4.48 0.0959983 8.352 0.0959985C11.904 0.0959986 16.032 2.56 20.736 7.488C24.704 11.616 28.32 16.624 31.584 22.512C34.688 28.08 36.24 32.096 36.24 34.56C36.24 36.384 35.12 37.296 32.88 37.296C31.92 37.296 31.296 37.232 31.008 37.104C30.528 36.944 29.92 36.448 29.184 35.616C28.992 35.392 27.648 32.608 25.152 27.264C22.528 21.728 20.032 17.44 17.664 14.4C14.144 9.952 10.592 7.728 7.008 7.728C5.248 7.728 4 8.816 3.264 10.992C2.816 12.304 2.592 13.808 2.592 15.504C2.592 18.224 2.976 21.408 3.744 25.056C4.384 27.968 4.976 30.08 5.52 31.392C6.704 33.632 8.368 37.056 10.512 41.664C11.76 44.736 12.384 46.336 12.384 46.464C12.384 46.976 12.016 47.712 11.28 48.672C10.576 49.664 9.952 50.16 9.408 50.16ZM22.272 89.5943C20.992 89.5943 19.904 88.5863 19.008 86.5703C18.304 85.0343 17.952 83.7543 17.952 82.7303L17.952 72.6022C17.152 72.1862 16.336 71.7862 15.504 71.4023C14.32 70.8902 13.296 70.6342 12.432 70.6342L0.767997 70.6342C0.0639969 70.6342 -0.512003 70.0422 -0.960003 68.8582C-1.28 68.0262 -1.44 67.3062 -1.44 66.6982C-1.44 65.3222 -0.848003 64.2182 0.335997 63.3862C1.264 62.7142 2.176 62.3782 3.072 62.3782C3.264 62.3782 4.96 62.6022 8.16 63.0502C11.648 63.5942 14.496 63.9462 16.704 64.1062C16.608 63.4022 16.56 62.4742 16.56 61.3222C16.56 60.5542 16.576 59.5942 16.608 58.4422C16.672 57.2902 16.704 56.6662 16.704 56.5702C16.704 53.9462 15.104 52.3782 11.904 51.8662C8.928 51.7062 5.952 51.5622 2.976 51.4342C-0.256002 51.1462 -1.872 49.9782 -1.872 47.9302C-1.872 45.9142 0.0159981 44.9062 3.792 44.9062C4.272 44.9062 4.784 44.9222 5.328 44.9542C5.904 44.9862 6.192 45.0022 6.192 45.0022C17.072 45.0022 26.624 46.8262 34.848 50.4742C35.04 51.1463 35.136 51.7702 35.136 52.3462C35.136 54.6183 33.488 55.7543 30.192 55.7542C29.232 55.7542 28.016 55.6582 26.544 55.4662C25.52 55.3062 24.48 55.1622 23.424 55.0342C23.264 55.5462 23.2 56.5702 23.232 58.1062C23.264 60.2823 23.28 61.2583 23.28 61.0343C23.184 63.6582 23.472 65.4502 24.144 66.4102C24.944 66.7942 26.592 67.2103 29.088 67.6583C31.488 68.0743 33.184 68.5383 34.176 69.0503C35.744 69.8823 36.528 71.1623 36.528 72.8902C36.528 74.1703 36.064 75.1783 35.136 75.9143C34.368 76.5223 33.456 76.8263 32.4 76.8263C32.048 76.8263 31.04 76.4423 29.376 75.6743C27.392 74.7463 26.032 74.1543 25.296 73.8983C25.04 76.8103 24.8 79.7223 24.576 82.6342C24.096 87.2743 23.328 89.5943 22.272 89.5943ZM16.416 129.249C14.72 128.929 13.632 128.593 13.152 128.241C12.672 127.889 12.432 127.297 12.432 126.465C12.432 126.273 12.448 125.873 12.48 125.265C12.512 124.657 12.528 124.145 12.528 123.729C12.528 123.793 12.464 123.217 12.336 122.001C12.24 121.009 12.24 120.321 12.336 119.937C10.832 119.745 9.328 119.553 7.82399 119.361C4.71999 118.913 2.23999 118.321 0.383995 117.585C-2.24001 116.561 -3.55201 115.313 -3.55201 113.841C-3.552 111.665 -0.976005 110.577 4.176 110.577C5.456 110.577 6.896 110.641 8.496 110.769C10.128 110.929 10.896 111.009 10.8 111.009C10.864 110.945 10.992 110.913 11.184 110.913C11.408 110.945 11.52 110.849 11.52 110.625C11.52 109.953 11.312 108.081 10.896 105.009C10.352 101.169 9.776 98.2246 9.168 96.1766C9.136 96.0166 8.4 95.4086 6.96 94.3526C5.264 93.1046 4.288 92.3686 4.032 92.1446C2.368 90.8966 0.703996 89.6486 -0.960004 88.4006C-2.688 86.9926 -3.552 85.4086 -3.552 83.6486C-3.552 81.0566 -2.336 79.7606 0.0959965 79.7606C2.144 79.7606 7.792 84.8006 17.04 94.8806C22.32 100.865 27.6 106.833 32.88 112.785C33.392 113.393 33.824 114.305 34.176 115.521C34.464 116.641 34.608 117.681 34.608 118.641C34.608 120.241 34.016 121.249 32.832 121.665C32.32 121.857 31.152 121.953 29.328 121.953L17.424 120.993L17.424 127.665C17.456 128.337 17.12 128.865 16.416 129.249ZM17.712 111.345C18.928 111.217 20.144 111.089 21.36 110.961C22.864 110.801 23.904 110.417 24.48 109.809C23.616 108.625 22.224 107.217 20.304 105.585C18.8 104.369 17.312 103.153 15.84 101.937L17.712 111.345ZM35.52 174.05C34.176 174.05 30.704 172.85 25.104 170.45C19.024 167.858 13.824 165.234 9.50399 162.578C4.15999 159.282 1.48799 156.642 1.48799 154.658C1.48799 152.898 3.13599 151.042 6.43199 149.09C8.79999 147.682 11.984 146.242 15.984 144.77C18 144.066 20.016 143.362 22.032 142.658C17.904 140.706 11.616 138.562 3.16799 136.226C2.49599 136.066 1.79199 135.426 1.05599 134.306C0.319994 133.218 -0.0480058 132.386 -0.0480058 131.81C-0.0480057 130.37 0.607994 129.266 1.91999 128.498C2.87999 127.922 3.93599 127.634 5.08799 127.634C6.78399 127.634 8.33599 127.922 9.74399 128.498C13.296 129.97 18.24 132.434 24.576 135.89C28.416 137.97 31.296 139.922 33.216 141.746C33.472 142.002 33.664 142.626 33.792 143.618C33.984 145.058 34.112 145.906 34.176 146.162C28.512 149.65 20.752 151.874 10.896 152.834C10.512 153.25 9.90399 153.906 9.07199 154.802C12.304 156.658 17.216 158.962 23.808 161.714C27.968 163.474 30.576 164.626 31.632 165.17C36.112 167.602 38.352 169.922 38.352 172.13C38.352 173.09 37.952 173.698 37.152 173.954C36.96 174.018 36.416 174.05 35.52 174.05ZM24.432 220.388C20.496 220.388 16.56 217.316 12.624 211.172C9.77599 206.788 7.08799 201.06 4.55999 193.988C4.49599 193.796 3.50399 190.692 1.58399 184.676C0.975992 182.788 -0.0160079 180.18 -1.39201 176.852C-2.12801 175.028 -2.49601 173.476 -2.49601 172.196C-2.49601 170.916 -2.25601 170.084 -1.77601 169.7C-1.39201 169.412 -0.640007 169.268 0.479993 169.268C2.87999 169.268 6.63999 170.052 11.76 171.62C16.912 173.188 20.56 173.972 22.704 173.972C23.952 173.972 25.072 173.796 26.064 173.444C26.608 173.796 26.88 174.452 26.88 175.412C26.88 175.892 26.8 176.42 26.64 176.996C27.28 177.476 28.432 177.876 30.096 178.196C31.984 178.516 33.216 178.82 33.792 179.108C34.976 179.684 35.568 180.612 35.568 181.892C35.568 182.244 35.52 182.644 35.424 183.092C34.976 183.7 34.256 184.004 33.264 184.004L32.976 184.004C32.272 184.004 31.696 184.084 31.248 184.244C33.616 188.82 35.024 192.004 35.472 193.796C35.76 195.012 35.904 197.668 35.904 201.764C35.904 206.692 35.408 210.5 34.416 213.188C32.688 217.988 29.36 220.388 24.432 220.388ZM23.04 214.388C25.568 214.388 27.52 212.292 28.896 208.1C29.856 205.156 30.336 202.324 30.336 199.604C30.336 195.284 29.424 191.364 27.6 187.844C26.992 186.66 26.384 185.46 25.776 184.244C24.976 182.836 24.384 182.036 24 181.844C21.728 180.692 18.752 179.636 15.072 178.676C12 177.908 8.92799 177.14 5.85599 176.372C7.23199 181.236 9.34399 188.404 12.192 197.876C15.712 208.884 19.328 214.388 23.04 214.388ZM5.90399 252.193C5.32799 252.193 4.39999 251.777 3.11999 250.945C1.64799 250.049 0.911989 249.201 0.911989 248.401C0.911989 248.497 1.11999 247.521 1.53599 245.473C1.95199 243.425 2.15999 241.169 2.15999 238.705C2.15999 234.961 1.64799 230.705 0.62399 225.937C-0.36801 221.169 -0.86401 217.617 -0.864009 215.281C-0.864009 214.161 -0.752009 213.377 -0.528009 212.929C-0.208009 212.289 0.479991 211.969 1.53599 211.969C1.63199 211.969 2.99199 212.561 5.61599 213.745C8.62399 215.089 11.152 216.081 13.2 216.721C18.928 218.417 26.288 219.985 35.28 221.425C36.784 221.649 37.536 222.481 37.536 223.921C37.536 224.529 37.216 225.169 36.576 225.841C27.584 225.937 18.24 224.033 8.54399 220.129C8.63999 220.769 8.97599 222.801 9.55199 226.225C10.064 229.041 10.32 230.593 10.32 230.881C10.32 235.073 10.144 238.849 9.79199 242.209C9.05599 248.865 7.75999 252.193 5.90399 252.193ZM18.576 287.798C17.776 284.086 16.992 278.838 16.224 272.054C15.744 267.638 14.992 264.662 13.968 263.126C12.656 261.142 10.032 259.718 6.09599 258.854C5.77599 259.43 5.61599 260.63 5.61599 262.454C5.61599 262.838 6.39999 265.222 7.96799 269.606C9.56799 273.99 10.368 276.374 10.368 276.758C10.368 277.91 10.24 278.742 9.98399 279.254C9.59999 280.15 8.71999 281.014 7.34399 281.846C4.84799 280.502 2.38399 276.998 -0.0480119 271.334C-2.35201 265.926 -3.50401 261.414 -3.50401 257.798C-3.50401 255.302 -3.07201 253.478 -2.20801 252.326C-1.18401 251.014 0.543989 250.358 2.97599 250.358C6.11199 250.358 11.872 251.814 20.256 254.726C28.192 257.478 32.576 259.334 33.408 260.294C34.4 261.382 34.896 264.55 34.896 269.798C34.896 272.518 34.8 274.246 34.608 274.982C34.224 276.582 33.184 278.086 31.488 279.494L29.328 278.726C29.2 277.894 29.136 276.806 29.136 275.462C29.136 275.174 29.152 274.71 29.184 274.07C29.184 273.462 29.184 272.998 29.184 272.678C29.184 269.958 28.864 268.006 28.224 266.822C27.328 265.094 25.632 264.23 23.136 264.23L21.12 264.182C21.088 266.102 21.248 269.318 21.6 273.83C21.952 278.566 22.128 281.686 22.128 283.19C22.128 284.374 21.888 285.478 21.408 286.502C20.928 287.558 20.304 288.086 19.536 288.086C19.216 288.086 18.896 287.99 18.576 287.798ZM27.552 328.296C25.568 328.296 23.936 326.856 22.656 323.976C21.728 321.896 21.024 319.16 20.544 315.768C20.384 314.136 20.224 312.52 20.064 310.92C19.04 312.808 18.032 314.696 17.04 316.584C15.472 319.4 14.016 321.56 12.672 323.064C10.816 325.112 9.00799 326.136 7.24799 326.136C6.47999 326.136 5.79199 326.008 5.18399 325.752C4.38399 325.4 3.98399 324.904 3.98399 324.264C3.98399 323.944 4.86399 323 6.62399 321.432C8.38399 319.864 9.31199 318.904 9.40799 318.552L12.96 304.632C12.96 303.896 13.152 302.792 13.536 301.32C14.08 299.4 14.704 298.44 15.408 298.44C17.68 298.44 19.664 300.296 21.36 304.008C21.808 305.032 22.496 307.144 23.424 310.344C23.968 312.136 24.416 313.496 24.768 314.424C25.568 316.44 26.384 317.832 27.216 318.6C27.76 318.408 28.032 317.672 28.032 316.392C28.032 313.928 27.44 310.552 26.256 306.264C24.944 301.592 23.696 299 22.512 298.488C19.632 297.176 14.928 295.096 8.39999 292.248C7.34399 291.8 5.42399 291.336 2.63999 290.856C1.42399 290.696 0.223987 290.536 -0.960013 290.376C-3.45601 289.928 -5.47201 289.336 -7.00801 288.6C-9.12001 287.576 -10.176 286.312 -10.176 284.808C-10.176 284.392 -9.85601 283.848 -9.21601 283.176C-5.88801 283.048 -2.76801 283.352 0.143988 284.088C1.83999 284.536 4.78399 285.56 8.97599 287.16C13.584 288.952 17.792 290.408 21.6 291.528C21.696 291.368 21.904 290.664 22.224 289.416C22.512 288.456 22.768 287.96 22.992 287.928C23.568 287.864 24.336 287.976 25.296 288.264C26.736 288.68 27.536 288.888 27.696 288.888C27.696 288.92 27.984 289.688 28.56 291.192C28.944 292.216 29.312 292.856 29.664 293.112C30.432 293.592 31.184 294.088 31.92 294.6C32.56 295.176 32.88 296.072 32.88 297.288C32.88 297.48 32.768 298.392 32.544 300.024C32.32 301.688 32.208 302.648 32.208 302.904C32.208 303.192 32.528 304.168 33.168 305.832C33.968 307.88 34.56 309.624 34.944 311.064C35.584 313.464 35.904 315.704 35.904 317.784C35.904 320.28 35.28 322.536 34.032 324.552C32.496 327.048 30.336 328.296 27.552 328.296Z" fill="#343434"/>
</svg>
