<svg width="80" height="365" viewBox="0 0 80 365" fill="none" xmlns="http://www.w3.org/2000/svg">
<path d="M64.24 69.888C58.928 69.888 53.968 67.168 49.36 61.728C44.816 56.352 42.384 50.208 42.064 43.296C41.936 41.056 42.064 38.176 42.448 34.656C42.832 30.688 43.024 27.904 43.024 26.304C43.024 24 42.8 21.824 42.352 19.776C39.856 18.624 36.24 17.184 31.504 15.456C24.336 12.832 19.376 11.52 16.624 11.52L6.256 11.52C5.616 11.52 4.72 11.264 3.568 10.752C2.16 10.176 1.456 9.504 1.456 8.736C1.456 6.368 2.288 4.384 3.952 2.784C5.616 1.184 7.376 0.383996 9.232 0.383996C11.024 0.383996 22.928 2.336 44.944 6.24C48.912 6.88 54.992 7.968 63.184 9.504C64.912 9.76 66.64 10.016 68.368 10.272C70.672 10.72 72.496 11.296 73.84 12C74.48 12.896 75.568 14.24 77.104 16.032C77.168 16.288 77.2 16.64 77.2 17.088C77.2 18.304 76.624 19.296 75.472 20.064C74.32 20.832 73.136 21.6 71.92 22.368C76.08 32.224 78.64 40.544 79.6 47.328C79.664 47.84 79.696 48.416 79.696 49.056C79.696 53.536 78.384 57.92 75.76 62.208C72.688 67.328 68.848 69.888 64.24 69.888ZM65.008 56.64C68.528 56.64 70.288 53.216 70.288 46.368C70.288 45.152 69.552 43.136 68.08 40.32C66.224 36.736 65.2 34.656 65.008 34.08C64.496 32.672 63.6 31.008 62.32 29.088C60.592 26.4 59.152 25.056 58 25.056C56.784 25.056 56.048 25.536 55.792 26.496C55.728 26.688 55.696 27.392 55.696 28.608C55.696 34.304 56.24 39.712 57.328 44.832C58.352 49.568 59.408 52.704 60.496 54.24C61.584 55.84 63.088 56.64 65.008 56.64ZM39.568 134.431C37.456 134.431 35.696 132.799 34.288 129.535C33.2 127.103 32.656 125.087 32.656 123.487L32.656 107.167C28.112 105.055 25.168 103.999 23.824 103.999L5.104 103.999C4.016 103.999 3.088 103.071 2.32 101.215C1.808 99.8707 1.552 98.7187 1.552 97.7587C1.552 95.5827 2.512 93.8227 4.432 92.4787C5.904 91.3907 7.376 90.8467 8.848 90.8467C9.168 90.8467 11.856 91.2307 16.912 91.9987C22.544 92.7667 27.12 93.2787 30.64 93.5347C30.448 92.5107 30.352 91.0707 30.352 89.2147C30.352 87.9347 30.384 86.3667 30.448 84.5107C30.576 82.7187 30.64 81.7267 30.64 81.5347C30.64 77.3107 28.08 74.7827 22.96 73.9507C18.16 73.7587 13.392 73.5667 8.656 73.3747C3.472 72.9267 0.879996 71.0387 0.879996 67.7107C0.879997 64.5107 3.92 62.9107 10 62.9107C10.768 62.9107 11.6 62.9427 12.496 63.0067C13.392 63.0707 13.84 63.1027 13.84 63.1027C31.248 63.1027 46.512 65.9827 59.632 71.7427C60.016 73.0867 60.208 74.3027 60.208 75.3907C60.208 79.4227 57.392 81.4387 51.76 81.4387C50.736 81.4387 48.272 81.2467 44.368 80.8627C44.048 81.8867 43.888 84.3187 43.888 88.1587C43.888 94.1747 45.488 98.1748 48.688 100.159C49.584 100.799 52.528 101.631 57.52 102.655C60.72 103.295 62.32 104.959 62.32 107.647C62.32 109.695 61.584 111.295 60.112 112.447C58.896 113.471 57.456 113.983 55.792 113.983C55.152 113.983 53.52 113.343 50.896 112.063C47.696 110.591 45.52 109.663 44.368 109.279C43.984 113.951 43.6 118.591 43.216 123.199C42.448 130.687 41.232 134.431 39.568 134.431ZM44.176 180.787C36.048 180.787 28.304 177.875 20.944 172.051C12.816 165.587 8.75199 157.875 8.75199 148.915C8.75199 141.939 10.8 136.499 14.896 132.595C18.8 128.819 23.984 126.931 30.448 126.931C33.008 126.931 37.36 127.859 43.504 129.715C50.992 132.019 57.168 134.707 62.032 137.779C68.304 141.811 71.44 146.067 71.44 150.547C71.44 159.187 69.232 166.227 64.816 171.667C59.888 177.747 53.008 180.787 44.176 180.787ZM40.336 163.795C40.272 163.795 41.488 164.019 43.984 164.467C46.48 164.979 48.688 165.235 50.608 165.235C58.416 165.235 62 161.395 61.36 153.715C61.04 149.619 56.4 145.747 47.44 142.099C39.952 139.027 34.256 137.491 30.352 137.491C28.048 137.491 25.968 137.875 24.112 138.643C20.528 139.987 18.736 142.451 18.736 146.035C18.736 150.963 21.808 155.347 27.952 159.187C32.944 162.259 37.072 163.795 40.336 163.795ZM44.752 240.862C43.152 234.59 41.68 226.014 40.336 215.134C39.312 206.622 38.096 201.086 36.688 198.526C34.704 194.622 31.056 192.862 25.744 193.246C25.552 193.566 25.456 194.142 25.456 194.974C25.456 195.742 25.552 196.926 25.744 198.526C25.936 200.19 26.032 201.214 26.032 201.598C26.032 202.238 26.768 205.63 28.24 211.774C29.712 217.982 30.448 221.374 30.448 221.95C30.448 223.806 30.288 225.15 29.968 225.982C29.328 227.454 27.888 228.83 25.648 230.11C21.68 227.998 17.744 222.398 13.84 213.31C10.128 204.67 8.27199 197.438 8.27199 191.614C8.27199 187.646 8.97599 184.766 10.384 182.974C12.048 180.862 14.8 179.806 18.64 179.806C23.696 179.806 32.912 182.11 46.288 186.718C58.96 191.134 66.032 194.142 67.504 195.742C68.976 197.406 69.712 202.462 69.712 210.91C69.712 214.75 69.424 217.63 68.848 219.55C67.952 222.366 66.128 224.926 63.376 227.23L60.208 226.366C60.016 226.238 60.016 223.774 60.208 218.974C60.4 213.406 60.08 209.15 59.248 206.206C57.904 201.662 55.312 199.39 51.472 199.39L48.88 199.39C48.816 202.462 49.072 208.222 49.648 216.67C50.224 225.502 50.512 231.102 50.512 233.47C50.512 235.326 50.128 237.214 49.36 239.134C48.656 241.118 47.76 242.11 46.672 242.11C46.032 242.11 45.392 241.694 44.752 240.862ZM27.856 305.581C25.296 305.581 22.48 305.005 19.408 303.853C16.464 300.781 13.296 293.549 9.90399 282.157C6.19199 269.677 4.33599 258.669 4.33599 249.133C4.33599 241.581 5.45599 236.749 7.69599 234.637C9.93599 232.525 14.768 231.469 22.192 231.469C24.56 231.469 25.68 231.469 25.552 231.469C26.64 231.597 28.336 232.109 30.64 233.005C34.032 234.797 39.504 237.453 47.056 240.973C47.888 241.357 49.84 241.805 52.912 242.317C55.536 242.829 57.456 243.469 58.672 244.237C59.568 244.877 60.592 247.725 61.744 252.781C64.176 263.341 65.392 271.949 65.392 278.605C65.392 290.125 63.056 295.885 58.384 295.885C57.104 295.885 55.12 295.117 52.432 293.581C49.808 292.109 47.888 290.637 46.672 289.165C44.56 300.109 38.288 305.581 27.856 305.581ZM54.448 282.445L55.312 281.581L55.312 273.037C55.376 270.221 54.768 265.933 53.488 260.173C51.696 252.237 49.52 248.269 46.96 248.269L45.328 248.269C45.328 248.269 45.328 251.277 45.328 257.293C45.584 261.837 46.608 266.573 48.4 271.501C50.192 276.493 52.208 280.141 54.448 282.445ZM26.512 296.653C27.856 296.653 29.552 295.277 31.6 292.525C33.264 290.413 34.32 288.749 34.768 287.533C35.856 284.589 36.4 279.053 36.4 270.925C36.4 266.957 36.112 263.789 35.536 261.421C34.96 259.117 34.416 256.877 33.904 254.701C33.584 252.909 33.264 251.149 32.944 249.421C32.496 247.373 31.984 245.869 31.408 244.909C30.448 243.565 28.752 242.349 26.32 241.261C23.888 240.237 22.032 239.853 20.752 240.109C22.48 247.469 23.344 253.453 23.344 258.061C23.344 262.157 22.672 264.205 21.328 264.205C20.432 264.205 19.248 263.021 17.776 260.653C17.072 259.373 16.368 258.093 15.664 256.813C18.928 283.373 22.544 296.653 26.512 296.653ZM44.752 363.299C43.152 357.027 41.68 348.451 40.336 337.571C39.312 329.059 38.096 323.523 36.688 320.963C34.704 317.059 31.056 315.299 25.744 315.683C25.552 316.003 25.456 316.579 25.456 317.411C25.456 318.179 25.552 319.363 25.744 320.963C25.936 322.627 26.032 323.651 26.032 324.035C26.032 324.675 26.768 328.067 28.24 334.211C29.712 340.419 30.448 343.811 30.448 344.387C30.448 346.243 30.288 347.587 29.968 348.419C29.328 349.891 27.888 351.267 25.648 352.547C21.68 350.435 17.744 344.835 13.84 335.747C10.128 327.107 8.27199 319.875 8.27199 314.051C8.27199 310.083 8.97599 307.203 10.384 305.411C12.048 303.299 14.8 302.243 18.64 302.243C23.696 302.243 32.912 304.547 46.288 309.155C58.96 313.571 66.032 316.579 67.504 318.179C68.976 319.843 69.712 324.899 69.712 333.347C69.712 337.187 69.424 340.067 68.848 341.987C67.952 344.803 66.128 347.363 63.376 349.667L60.208 348.803C60.016 348.675 60.016 346.211 60.208 341.411C60.4 335.843 60.08 331.587 59.248 328.643C57.904 324.099 55.312 321.827 51.472 321.827L48.88 321.827C48.816 324.899 49.072 330.659 49.648 339.107C50.224 347.939 50.512 353.539 50.512 355.907C50.512 357.763 50.128 359.651 49.36 361.571C48.656 363.555 47.76 364.547 46.672 364.547C46.032 364.547 45.392 364.131 44.752 363.299Z" fill="#343434"/>
</svg>
