<svg width="40" height="183" viewBox="0 0 40 183" fill="none" xmlns="http://www.w3.org/2000/svg">
<path d="M32.12 34.944C29.464 34.944 26.984 33.584 24.68 30.864C22.408 28.176 21.192 25.104 21.032 21.648C20.968 20.528 21.032 19.088 21.224 17.328C21.416 15.344 21.512 13.952 21.512 13.152C21.512 12 21.4 10.912 21.176 9.888C19.928 9.312 18.12 8.592 15.752 7.728C12.168 6.416 9.688 5.76 8.312 5.76L3.128 5.76C2.808 5.76 2.36 5.632 1.784 5.376C1.08 5.088 0.728 4.752 0.728 4.368C0.728 3.184 1.144 2.192 1.976 1.392C2.808 0.591998 3.688 0.191998 4.616 0.191998C5.512 0.191998 11.464 1.168 22.472 3.12C24.456 3.44 27.496 3.984 31.592 4.752C32.456 4.88 33.32 5.008 34.184 5.136C35.336 5.36 36.248 5.648 36.92 6C37.24 6.448 37.784 7.12 38.552 8.016C38.584 8.144 38.6 8.32 38.6 8.544C38.6 9.152 38.312 9.648 37.736 10.032C37.16 10.416 36.568 10.8 35.96 11.184C38.04 16.112 39.32 20.272 39.8 23.664C39.832 23.92 39.848 24.208 39.848 24.528C39.848 26.768 39.192 28.96 37.88 31.104C36.344 33.664 34.424 34.944 32.12 34.944ZM32.504 28.32C34.264 28.32 35.144 26.608 35.144 23.184C35.144 22.576 34.776 21.568 34.04 20.16C33.112 18.368 32.6 17.328 32.504 17.04C32.248 16.336 31.8 15.504 31.16 14.544C30.296 13.2 29.576 12.528 29 12.528C28.392 12.528 28.024 12.768 27.896 13.248C27.864 13.344 27.848 13.696 27.848 14.304C27.848 17.152 28.12 19.856 28.664 22.416C29.176 24.784 29.704 26.352 30.248 27.12C30.792 27.92 31.544 28.32 32.504 28.32ZM19.784 67.2154C18.728 67.2154 17.848 66.3994 17.144 64.7674C16.6 63.5514 16.328 62.5434 16.328 61.7434L16.328 53.5834C14.056 52.5274 12.584 51.9994 11.912 51.9994L2.552 51.9994C2.008 51.9994 1.544 51.5354 1.16 50.6074C0.903998 49.9354 0.775998 49.3594 0.775998 48.8794C0.775998 47.7914 1.256 46.9114 2.216 46.2394C2.952 45.6954 3.688 45.4234 4.424 45.4234C4.584 45.4234 5.928 45.6154 8.456 45.9994C11.272 46.3834 13.56 46.6394 15.32 46.7674C15.224 46.2554 15.176 45.5354 15.176 44.6074C15.176 43.9674 15.192 43.1834 15.224 42.2554C15.288 41.3594 15.32 40.8634 15.32 40.7674C15.32 38.6554 14.04 37.3914 11.48 36.9754C9.08 36.8794 6.696 36.7834 4.328 36.6874C1.736 36.4634 0.439998 35.5194 0.439998 33.8554C0.439998 32.2554 1.96 31.4554 5 31.4554C5.384 31.4554 5.8 31.4714 6.248 31.5034C6.696 31.5354 6.92 31.5514 6.92 31.5514C15.624 31.5514 23.256 32.9914 29.816 35.8714C30.008 36.5434 30.104 37.1514 30.104 37.6954C30.104 39.7114 28.696 40.7194 25.88 40.7194C25.368 40.7194 24.136 40.6234 22.184 40.4314C22.024 40.9434 21.944 42.1594 21.944 44.0794C21.944 47.0874 22.744 49.0874 24.344 50.0794C24.792 50.3994 26.264 50.8154 28.76 51.3274C30.36 51.6474 31.16 52.4794 31.16 53.8234C31.16 54.8474 30.792 55.6474 30.056 56.2234C29.448 56.7354 28.728 56.9914 27.896 56.9914C27.576 56.9914 26.76 56.6714 25.448 56.0314C23.848 55.2954 22.76 54.8314 22.184 54.6394C21.992 56.9754 21.8 59.2954 21.608 61.5994C21.224 65.3434 20.616 67.2154 19.784 67.2154ZM22.088 90.3934C18.024 90.3934 14.152 88.9374 10.472 86.0254C6.408 82.7934 4.376 78.9374 4.376 74.4574C4.376 70.9694 5.4 68.2494 7.448 66.2974C9.4 64.4094 11.992 63.4654 15.224 63.4654C16.504 63.4654 18.68 63.9294 21.752 64.8574C25.496 66.0094 28.584 67.3534 31.016 68.8894C34.152 70.9054 35.72 73.0334 35.72 75.2734C35.72 79.5934 34.616 83.1134 32.408 85.8334C29.944 88.8734 26.504 90.3934 22.088 90.3934ZM20.168 81.8974C20.136 81.8974 20.744 82.0094 21.992 82.2334C23.24 82.4894 24.344 82.6174 25.304 82.6174C29.208 82.6174 31 80.6974 30.68 76.8574C30.52 74.8094 28.2 72.8734 23.72 71.0494C19.976 69.5134 17.128 68.7454 15.176 68.7454C14.024 68.7454 12.984 68.9374 12.056 69.3214C10.264 69.9934 9.368 71.2254 9.368 73.0174C9.368 75.4814 10.904 77.6734 13.976 79.5934C16.472 81.1294 18.536 81.8974 20.168 81.8974ZM22.376 120.431C21.576 117.295 20.84 113.007 20.168 107.567C19.656 103.311 19.048 100.543 18.344 99.2629C17.352 97.3109 15.528 96.4309 12.872 96.6229C12.776 96.7829 12.728 97.0709 12.728 97.4869C12.728 97.8709 12.776 98.4629 12.872 99.2629C12.968 100.095 13.016 100.607 13.016 100.799C13.016 101.119 13.384 102.815 14.12 105.887C14.856 108.991 15.224 110.687 15.224 110.975C15.224 111.903 15.144 112.575 14.984 112.991C14.664 113.727 13.944 114.415 12.824 115.055C10.84 113.999 8.872 111.199 6.92 106.655C5.064 102.335 4.136 98.7189 4.136 95.8069C4.136 93.8229 4.488 92.3829 5.192 91.4869C6.024 90.4309 7.4 89.9029 9.32 89.9029C11.848 89.9029 16.456 91.0549 23.144 93.3589C29.48 95.5669 33.016 97.0709 33.752 97.8709C34.488 98.7029 34.856 101.231 34.856 105.455C34.856 107.375 34.712 108.815 34.424 109.775C33.976 111.183 33.064 112.463 31.688 113.615L30.104 113.183C30.008 113.119 30.008 111.887 30.104 109.487C30.2 106.703 30.04 104.575 29.624 103.103C28.952 100.831 27.656 99.6949 25.736 99.6949L24.44 99.6949C24.408 101.231 24.536 104.111 24.824 108.335C25.112 112.751 25.256 115.551 25.256 116.735C25.256 117.663 25.064 118.607 24.68 119.567C24.328 120.559 23.88 121.055 23.336 121.055C23.016 121.055 22.696 120.847 22.376 120.431ZM13.928 152.79C12.648 152.79 11.24 152.502 9.70399 151.926C8.23199 150.39 6.64799 146.774 4.95199 141.078C3.09599 134.838 2.16799 129.334 2.16799 124.566C2.16799 120.79 2.72799 118.374 3.84799 117.318C4.96799 116.262 7.384 115.734 11.096 115.734C12.28 115.734 12.84 115.734 12.776 115.734C13.32 115.798 14.168 116.054 15.32 116.502C17.016 117.398 19.752 118.726 23.528 120.486C23.944 120.678 24.92 120.902 26.456 121.158C27.768 121.414 28.728 121.734 29.336 122.118C29.784 122.438 30.296 123.862 30.872 126.39C32.088 131.67 32.696 135.974 32.696 139.302C32.696 145.062 31.528 147.942 29.192 147.942C28.552 147.942 27.56 147.558 26.216 146.79C24.904 146.054 23.944 145.318 23.336 144.582C22.28 150.054 19.144 152.79 13.928 152.79ZM27.224 141.222L27.656 140.79L27.656 136.518C27.688 135.11 27.384 132.966 26.744 130.086C25.848 126.118 24.76 124.134 23.48 124.134L22.664 124.134C22.664 124.134 22.664 125.638 22.664 128.646C22.792 130.918 23.304 133.286 24.2 135.75C25.096 138.246 26.104 140.07 27.224 141.222ZM13.256 148.326C13.928 148.326 14.776 147.638 15.8 146.262C16.632 145.206 17.16 144.374 17.384 143.766C17.928 142.294 18.2 139.526 18.2 135.462C18.2 133.478 18.056 131.894 17.768 130.71C17.48 129.558 17.208 128.438 16.952 127.35C16.792 126.454 16.632 125.574 16.472 124.71C16.248 123.686 15.992 122.934 15.704 122.454C15.224 121.782 14.376 121.174 13.16 120.63C11.944 120.118 11.016 119.926 10.376 120.054C11.24 123.734 11.672 126.726 11.672 129.03C11.672 131.078 11.336 132.102 10.664 132.102C10.216 132.102 9.62399 131.51 8.88799 130.326C8.53599 129.686 8.18399 129.046 7.83199 128.406C9.46399 141.686 11.272 148.326 13.256 148.326ZM22.376 181.65C21.576 178.514 20.84 174.226 20.168 168.786C19.656 164.53 19.048 161.762 18.344 160.482C17.352 158.53 15.528 157.65 12.872 157.842C12.776 158.002 12.728 158.29 12.728 158.706C12.728 159.09 12.776 159.682 12.872 160.482C12.968 161.314 13.016 161.826 13.016 162.018C13.016 162.338 13.384 164.034 14.12 167.106C14.856 170.21 15.224 171.906 15.224 172.194C15.224 173.122 15.144 173.794 14.984 174.21C14.664 174.946 13.944 175.634 12.824 176.274C10.84 175.218 8.87199 172.418 6.91999 167.874C5.06399 163.554 4.13599 159.938 4.13599 157.026C4.13599 155.042 4.48799 153.602 5.19199 152.706C6.02399 151.65 7.39999 151.122 9.31999 151.122C11.848 151.122 16.456 152.274 23.144 154.578C29.48 156.786 33.016 158.29 33.752 159.09C34.488 159.922 34.856 162.45 34.856 166.674C34.856 168.594 34.712 170.034 34.424 170.994C33.976 172.402 33.064 173.682 31.688 174.834L30.104 174.402C30.008 174.338 30.008 173.106 30.104 170.706C30.2 167.922 30.04 165.794 29.624 164.322C28.952 162.05 27.656 160.914 25.736 160.914L24.44 160.914C24.408 162.45 24.536 165.33 24.824 169.554C25.112 173.97 25.256 176.77 25.256 177.954C25.256 178.882 25.064 179.826 24.68 180.786C24.328 181.778 23.88 182.274 23.336 182.274C23.016 182.274 22.696 182.066 22.376 181.65Z" fill="#343434"/>
</svg>
