<svg width="43" height="245" viewBox="0 0 43 245" fill="none" xmlns="http://www.w3.org/2000/svg">
<path d="M32.552 45.312C30.568 45.312 28.936 43.872 27.656 40.992C26.728 38.912 26.024 36.176 25.544 32.784C25.384 31.152 25.224 29.536 25.064 27.936C24.04 29.824 23.032 31.712 22.04 33.6C20.472 36.416 19.016 38.576 17.672 40.08C15.816 42.128 14.008 43.152 12.248 43.152C11.48 43.152 10.792 43.024 10.184 42.768C9.384 42.416 8.984 41.92 8.984 41.28C8.984 40.96 9.864 40.016 11.624 38.448C13.384 36.88 14.312 35.92 14.408 35.568L17.96 21.648C17.96 20.912 18.152 19.808 18.536 18.336C19.08 16.416 19.704 15.456 20.408 15.456C22.68 15.456 24.664 17.312 26.36 21.024C26.808 22.048 27.496 24.16 28.424 27.36C28.968 29.152 29.416 30.512 29.768 31.44C30.568 33.456 31.384 34.848 32.216 35.616C32.76 35.424 33.032 34.688 33.032 33.408C33.032 30.944 32.44 27.568 31.256 23.28C29.944 18.608 28.696 16.016 27.512 15.504C24.632 14.192 19.928 12.112 13.4 9.264C12.344 8.816 10.424 8.352 7.64 7.872C6.424 7.712 5.224 7.552 4.04 7.392C1.544 6.944 -0.472001 6.352 -2.008 5.616C-4.12 4.592 -5.176 3.328 -5.176 1.824C-5.176 1.408 -4.856 0.863998 -4.216 0.191998C-0.888 0.0639979 2.232 0.367998 5.144 1.104C6.84 1.552 9.784 2.576 13.976 4.176C18.584 5.968 22.792 7.424 26.6 8.544C26.696 8.384 26.904 7.68 27.224 6.432C27.512 5.472 27.768 4.976 27.992 4.944C28.568 4.88 29.336 4.992 30.296 5.28C31.736 5.696 32.536 5.904 32.696 5.904C32.696 5.936 32.984 6.704 33.56 8.208C33.944 9.232 34.312 9.872 34.664 10.128C35.432 10.608 36.184 11.104 36.92 11.616C37.56 12.192 37.88 13.088 37.88 14.304C37.88 14.496 37.768 15.408 37.544 17.04C37.32 18.704 37.208 19.664 37.208 19.92C37.208 20.208 37.528 21.184 38.168 22.848C38.968 24.896 39.56 26.64 39.944 28.08C40.584 30.48 40.904 32.72 40.904 34.8C40.904 37.296 40.28 39.552 39.032 41.568C37.496 44.064 35.336 45.312 32.552 45.312ZM21.416 90.1549C19.72 89.8349 18.632 89.4989 18.152 89.1469C17.672 88.7949 17.432 88.2029 17.432 87.3709C17.432 87.1789 17.448 86.7789 17.48 86.1709C17.512 85.5629 17.528 85.0509 17.528 84.6349C17.528 84.6989 17.464 84.1229 17.336 82.9069C17.24 81.9149 17.24 81.2269 17.336 80.8429C15.832 80.6509 14.328 80.4589 12.824 80.2669C9.72 79.8189 7.24 79.2269 5.384 78.4909C2.76 77.4669 1.448 76.2189 1.448 74.7469C1.448 72.5709 4.024 71.4829 9.176 71.4829C10.456 71.4829 11.896 71.5469 13.496 71.6749C15.128 71.8349 15.896 71.9149 15.8 71.9149C15.864 71.8509 15.992 71.8189 16.184 71.8189C16.408 71.8509 16.52 71.7549 16.52 71.5309C16.52 70.8589 16.312 68.9869 15.896 65.9149C15.352 62.0749 14.776 59.1309 14.168 57.0829C14.136 56.9229 13.4 56.3149 11.96 55.2589C10.264 54.0109 9.288 53.2749 9.032 53.0509C7.368 51.8029 5.704 50.5549 4.04 49.3069C2.312 47.8989 1.448 46.3149 1.448 44.5549C1.448 41.9629 2.664 40.6669 5.096 40.6669C7.144 40.6669 12.792 45.7069 22.04 55.7869C27.32 61.7709 32.6 67.7389 37.88 73.6909C38.392 74.2989 38.824 75.2109 39.176 76.4269C39.464 77.5469 39.608 78.5869 39.608 79.5469C39.608 81.1469 39.016 82.1549 37.832 82.5709C37.32 82.7629 36.152 82.8589 34.328 82.8589L22.424 81.8989L22.424 88.5709C22.456 89.2429 22.12 89.7709 21.416 90.1549ZM22.712 72.2509C23.928 72.1229 25.144 71.9949 26.36 71.8669C27.864 71.7069 28.904 71.3229 29.48 70.7149C28.616 69.5309 27.224 68.1229 25.304 66.4909C23.8 65.2749 22.312 64.0589 20.84 62.8429L22.712 72.2509ZM14.408 138.988C13.896 138.988 13.112 137.772 12.056 135.34C6.07199 121.388 3.08 110.412 3.08 102.412C3.08 98.7321 3.704 95.7721 4.952 93.5321C6.68 90.4601 9.48 88.9241 13.352 88.9241C16.904 88.9241 21.032 91.3881 25.736 96.3161C29.704 100.444 33.32 105.452 36.584 111.34C39.688 116.908 41.24 120.924 41.24 123.388C41.24 125.212 40.12 126.124 37.88 126.124C36.92 126.124 36.296 126.06 36.008 125.932C35.528 125.772 34.92 125.276 34.184 124.444C33.992 124.22 32.648 121.436 30.152 116.092C27.528 110.556 25.032 106.268 22.664 103.228C19.144 98.7801 15.592 96.5561 12.008 96.5561C10.248 96.5561 9 97.6441 8.264 99.8201C7.816 101.132 7.592 102.636 7.592 104.332C7.592 107.052 7.976 110.236 8.744 113.884C9.384 116.796 9.97599 118.908 10.52 120.22C11.704 122.46 13.368 125.884 15.512 130.492C16.76 133.564 17.384 135.164 17.384 135.292C17.384 135.804 17.016 136.54 16.28 137.5C15.576 138.492 14.952 138.988 14.408 138.988ZM27.272 178.422C25.992 178.422 24.904 177.414 24.008 175.398C23.304 173.862 22.952 172.582 22.952 171.558L22.952 161.43C22.152 161.014 21.336 160.614 20.504 160.23C19.32 159.718 18.296 159.462 17.432 159.462L5.76799 159.462C5.06399 159.462 4.48799 158.87 4.03999 157.686C3.71999 156.854 3.55999 156.134 3.55999 155.526C3.55999 154.15 4.15199 153.046 5.33599 152.214C6.26399 151.542 7.17599 151.206 8.07199 151.206C8.26399 151.206 9.95999 151.43 13.16 151.878C16.648 152.422 19.496 152.774 21.704 152.934C21.608 152.23 21.56 151.302 21.56 150.15C21.56 149.382 21.576 148.422 21.608 147.27C21.672 146.118 21.704 145.494 21.704 145.398C21.704 142.774 20.104 141.206 16.904 140.694C13.928 140.534 10.952 140.39 7.97599 140.262C4.74399 139.974 3.12799 138.806 3.12799 136.758C3.12799 134.742 5.01599 133.734 8.79199 133.734C9.27199 133.734 9.78399 133.75 10.328 133.782C10.904 133.814 11.192 133.83 11.192 133.83C22.072 133.83 31.624 135.654 39.848 139.302C40.04 139.974 40.136 140.598 40.136 141.174C40.136 143.446 38.488 144.582 35.192 144.582C34.232 144.582 33.016 144.486 31.544 144.294C30.52 144.134 29.48 143.99 28.424 143.862C28.264 144.374 28.2 145.398 28.232 146.934C28.264 149.11 28.28 150.086 28.28 149.862C28.184 152.486 28.472 154.278 29.144 155.238C29.944 155.622 31.592 156.038 34.088 156.486C36.488 156.902 38.184 157.366 39.176 157.878C40.744 158.71 41.528 159.99 41.528 161.718C41.528 162.998 41.064 164.006 40.136 164.742C39.368 165.35 38.456 165.654 37.4 165.654C37.048 165.654 36.04 165.27 34.376 164.502C32.392 163.574 31.032 162.982 30.296 162.726C30.04 165.638 29.8 168.55 29.576 171.462C29.096 176.102 28.328 178.422 27.272 178.422ZM23.576 208.861C22.776 205.149 21.992 199.901 21.224 193.117C20.744 188.701 19.992 185.725 18.968 184.189C17.656 182.205 15.032 180.781 11.096 179.917C10.776 180.493 10.616 181.693 10.616 183.517C10.616 183.901 11.4 186.285 12.968 190.669C14.568 195.053 15.368 197.437 15.368 197.821C15.368 198.973 15.24 199.805 14.984 200.317C14.6 201.213 13.72 202.077 12.344 202.909C9.84799 201.565 7.38399 198.061 4.95199 192.397C2.64799 186.989 1.49599 182.477 1.49599 178.861C1.49599 176.365 1.92799 174.541 2.79199 173.389C3.81599 172.077 5.54399 171.421 7.97599 171.421C11.112 171.421 16.872 172.877 25.256 175.789C33.192 178.541 37.576 180.397 38.408 181.357C39.4 182.445 39.896 185.613 39.896 190.861C39.896 193.581 39.8 195.309 39.608 196.045C39.224 197.645 38.184 199.149 36.488 200.557L34.328 199.789C34.2 198.957 34.136 197.869 34.136 196.525C34.136 196.237 34.152 195.773 34.184 195.133C34.184 194.525 34.184 194.061 34.184 193.741C34.184 191.021 33.864 189.069 33.224 187.885C32.328 186.157 30.632 185.293 28.136 185.293L26.12 185.245C26.088 187.165 26.248 190.381 26.6 194.893C26.952 199.629 27.128 202.749 27.128 204.253C27.128 205.437 26.888 206.541 26.408 207.565C25.928 208.621 25.304 209.149 24.536 209.149C24.216 209.149 23.896 209.053 23.576 208.861ZM10.904 244.271C10.328 244.271 9.39999 243.855 8.11999 243.023C6.64799 242.127 5.91199 241.279 5.91199 240.479C5.91199 240.575 6.11999 239.599 6.53599 237.551C6.95199 235.503 7.15999 233.247 7.15999 230.783C7.15999 227.039 6.64799 222.783 5.62399 218.015C4.63199 213.247 4.13599 209.695 4.13599 207.359C4.13599 206.239 4.24799 205.455 4.47199 205.007C4.79199 204.367 5.47999 204.047 6.53599 204.047C6.63199 204.047 7.99199 204.639 10.616 205.823C13.624 207.167 16.152 208.159 18.2 208.799C23.928 210.495 31.288 212.063 40.28 213.503C41.784 213.727 42.536 214.559 42.536 215.999C42.536 216.607 42.216 217.247 41.576 217.919C32.584 218.015 23.24 216.111 13.544 212.207C13.64 212.847 13.976 214.879 14.552 218.303C15.064 221.119 15.32 222.671 15.32 222.959C15.32 227.151 15.144 230.927 14.792 234.287C14.056 240.943 12.76 244.271 10.904 244.271Z" fill="#343434"/>
</svg>
