<svg width="93" height="489" viewBox="0 0 93 489" fill="none" xmlns="http://www.w3.org/2000/svg">
<path d="M72.104 90.624C68.136 90.624 64.872 87.744 62.312 81.984C60.456 77.824 59.048 72.352 58.088 65.568C57.768 62.304 57.448 59.072 57.128 55.872C55.08 59.648 53.064 63.424 51.08 67.2C47.944 72.832 45.032 77.152 42.344 80.16C38.632 84.256 35.016 86.304 31.496 86.304C29.96 86.304 28.584 86.048 27.368 85.536C25.768 84.832 24.968 83.84 24.968 82.56C24.968 81.92 26.728 80.032 30.248 76.896C33.768 73.76 35.624 71.84 35.816 71.136L42.92 43.296C42.92 41.824 43.304 39.616 44.072 36.672C45.16 32.832 46.408 30.912 47.816 30.912C52.36 30.912 56.328 34.624 59.72 42.048C60.616 44.096 61.992 48.32 63.848 54.72C64.936 58.304 65.832 61.024 66.536 62.88C68.136 66.912 69.768 69.696 71.432 71.232C72.52 70.848 73.064 69.376 73.064 66.816C73.064 61.888 71.88 55.136 69.512 46.56C66.888 37.216 64.392 32.032 62.024 31.008C56.264 28.384 46.856 24.224 33.8 18.528C31.688 17.632 27.848 16.704 22.28 15.744C19.848 15.424 17.448 15.104 15.08 14.784C10.088 13.888 6.056 12.704 2.984 11.232C-1.24 9.184 -3.352 6.656 -3.352 3.648C-3.352 2.816 -2.712 1.728 -1.432 0.383995C5.224 0.127996 11.464 0.735996 17.288 2.208C20.68 3.104 26.568 5.152 34.952 8.352C44.168 11.936 52.584 14.848 60.2 17.088C60.392 16.768 60.808 15.36 61.448 12.864C62.024 10.944 62.536 9.952 62.984 9.888C64.136 9.76 65.672 9.984 67.592 10.56C70.472 11.392 72.072 11.808 72.392 11.808C72.392 11.872 72.968 13.408 74.12 16.416C74.888 18.464 75.624 19.744 76.328 20.256C77.864 21.216 79.368 22.208 80.84 23.232C82.12 24.384 82.76 26.176 82.76 28.608C82.76 28.992 82.536 30.816 82.088 34.08C81.64 37.408 81.416 39.328 81.416 39.84C81.416 40.416 82.056 42.368 83.336 45.696C84.936 49.792 86.12 53.28 86.888 56.16C88.168 60.96 88.808 65.44 88.808 69.6C88.808 74.592 87.56 79.104 85.064 83.136C81.992 88.128 77.672 90.624 72.104 90.624ZM49.832 180.31C46.44 179.67 44.264 178.998 43.304 178.294C42.344 177.59 41.864 176.406 41.864 174.742C41.864 174.358 41.896 173.558 41.96 172.342C42.024 171.126 42.056 170.102 42.056 169.27C42.056 169.398 41.928 168.246 41.672 165.814C41.48 163.83 41.48 162.454 41.672 161.686C38.664 161.302 35.656 160.918 32.648 160.534C26.44 159.638 21.48 158.454 17.768 156.982C12.52 154.934 9.89599 152.438 9.89599 149.494C9.89599 145.142 15.048 142.966 25.352 142.966C27.912 142.966 30.792 143.094 33.992 143.35C37.256 143.67 38.792 143.83 38.6 143.83C38.728 143.702 38.984 143.638 39.368 143.638C39.816 143.702 40.04 143.51 40.04 143.062C40.04 141.718 39.624 137.974 38.792 131.83C37.704 124.15 36.552 118.262 35.336 114.166C35.272 113.846 33.8 112.63 30.92 110.518C27.528 108.022 25.576 106.55 25.064 106.102C21.736 103.606 18.408 101.11 15.08 98.6137C11.624 95.7977 9.896 92.6297 9.896 89.1097C9.896 83.9257 12.328 81.3337 17.192 81.3337C21.288 81.3337 32.584 91.4137 51.08 111.574C61.64 123.542 72.2 135.478 82.76 147.382C83.784 148.598 84.648 150.422 85.352 152.854C85.928 155.094 86.216 157.174 86.216 159.094C86.216 162.294 85.032 164.31 82.664 165.142C81.64 165.526 79.304 165.718 75.656 165.718L51.848 163.798L51.848 177.142C51.912 178.486 51.24 179.542 49.832 180.31ZM52.424 144.502C54.856 144.246 57.288 143.99 59.72 143.734C62.728 143.414 64.808 142.646 65.96 141.43C64.232 139.062 61.448 136.246 57.608 132.982C54.6 130.55 51.624 128.118 48.68 125.686L52.424 144.502ZM35.816 277.976C34.792 277.976 33.224 275.544 31.112 270.68C19.144 242.776 13.16 220.824 13.16 204.824C13.16 197.464 14.408 191.544 16.904 187.064C20.36 180.92 25.96 177.848 33.704 177.848C40.808 177.848 49.064 182.776 58.472 192.632C66.408 200.888 73.64 210.904 80.168 222.68C86.376 233.816 89.48 241.848 89.48 246.776C89.48 250.424 87.24 252.248 82.76 252.248C80.84 252.248 79.592 252.12 79.016 251.864C78.056 251.544 76.84 250.552 75.368 248.888C74.984 248.44 72.296 242.872 67.304 232.184C62.056 221.112 57.064 212.536 52.328 206.456C45.288 197.56 38.184 193.112 31.016 193.112C27.496 193.112 25 195.288 23.528 199.64C22.632 202.264 22.184 205.272 22.184 208.664C22.184 214.104 22.952 220.472 24.488 227.768C25.768 233.592 26.952 237.816 28.04 240.44C30.408 244.92 33.736 251.768 38.024 260.984C40.52 267.128 41.768 270.328 41.768 270.584C41.768 271.608 41.032 273.08 39.56 275C38.152 276.984 36.904 277.976 35.816 277.976ZM61.544 356.845C58.984 356.845 56.808 354.829 55.016 350.797C53.608 347.725 52.904 345.165 52.904 343.117L52.904 322.861C51.304 322.029 49.672 321.229 48.008 320.461C45.64 319.437 43.592 318.925 41.864 318.925L18.536 318.925C17.128 318.925 15.976 317.741 15.08 315.373C14.44 313.709 14.12 312.269 14.12 311.053C14.12 308.301 15.304 306.093 17.672 304.429C19.528 303.085 21.352 302.413 23.144 302.413C23.528 302.413 26.92 302.861 33.32 303.757C40.296 304.845 45.992 305.549 50.408 305.869C50.216 304.461 50.12 302.605 50.12 300.301C50.12 298.765 50.152 296.845 50.216 294.541C50.344 292.237 50.408 290.989 50.408 290.797C50.408 285.549 47.208 282.413 40.808 281.389C34.856 281.069 28.904 280.781 22.952 280.525C16.488 279.949 13.256 277.613 13.256 273.517C13.256 269.485 17.032 267.469 24.584 267.469C25.544 267.469 26.568 267.501 27.656 267.565C28.808 267.629 29.384 267.661 29.384 267.661C51.144 267.661 70.248 271.309 86.696 278.605C87.08 279.949 87.272 281.197 87.272 282.349C87.272 286.893 83.976 289.165 77.384 289.165C75.464 289.165 73.032 288.973 70.088 288.589C68.04 288.269 65.96 287.981 63.848 287.725C63.528 288.749 63.4 290.797 63.464 293.869C63.528 298.221 63.56 300.173 63.56 299.725C63.368 304.973 63.944 308.557 65.288 310.477C66.888 311.245 70.184 312.077 75.176 312.973C79.976 313.805 83.368 314.733 85.352 315.757C88.488 317.421 90.056 319.981 90.056 323.437C90.056 325.997 89.128 328.013 87.272 329.485C85.736 330.701 83.912 331.309 81.8 331.309C81.096 331.309 79.08 330.541 75.752 329.005C71.784 327.149 69.064 325.965 67.592 325.453C67.08 331.277 66.6 337.101 66.152 342.925C65.192 352.205 63.656 356.845 61.544 356.845ZM54.152 417.722C52.552 410.298 50.984 399.802 49.448 386.234C48.488 377.402 46.984 371.449 44.936 368.377C42.312 364.409 37.064 361.561 29.192 359.833C28.552 360.985 28.232 363.385 28.232 367.033C28.232 367.801 29.8 372.569 32.936 381.337C36.136 390.105 37.736 394.873 37.736 395.641C37.736 397.946 37.48 399.609 36.968 400.633C36.2 402.425 34.44 404.153 31.688 405.817C26.696 403.129 21.768 396.121 16.904 384.793C12.296 373.977 9.99198 364.953 9.99198 357.721C9.99198 352.729 10.856 349.081 12.584 346.777C14.632 344.153 18.088 342.841 22.952 342.841C29.224 342.841 40.744 345.753 57.512 351.577C73.384 357.081 82.152 360.794 83.816 362.714C85.8 364.89 86.792 371.226 86.792 381.722C86.792 387.162 86.6 390.618 86.216 392.09C85.448 395.29 83.368 398.298 79.976 401.113L75.656 399.578C75.4 397.914 75.272 395.737 75.272 393.05C75.272 392.473 75.304 391.546 75.368 390.266C75.368 389.05 75.368 388.122 75.368 387.482C75.368 382.041 74.728 378.137 73.448 375.769C71.656 372.313 68.264 370.586 63.272 370.585L59.24 370.489C59.176 374.329 59.496 380.761 60.2 389.786C60.904 399.258 61.256 405.498 61.256 408.506C61.256 410.874 60.776 413.082 59.816 415.13C58.856 417.242 57.608 418.298 56.072 418.298C55.432 418.298 54.792 418.106 54.152 417.722ZM28.808 488.542C27.656 488.542 25.8 487.71 23.24 486.046C20.296 484.254 18.824 482.558 18.824 480.958C18.824 481.15 19.24 479.198 20.072 475.102C20.904 471.006 21.32 466.494 21.32 461.566C21.32 454.078 20.296 445.566 18.248 436.03C16.264 426.494 15.272 419.39 15.272 414.718C15.272 412.478 15.496 410.91 15.944 410.014C16.584 408.734 17.96 408.094 20.072 408.094C20.264 408.094 22.984 409.278 28.232 411.646C34.248 414.334 39.304 416.318 43.4 417.598C54.856 420.99 69.576 424.126 87.56 427.006C90.568 427.454 92.072 429.118 92.072 431.998C92.072 433.214 91.432 434.494 90.152 435.838C72.168 436.03 53.48 432.222 34.088 424.414C34.28 425.694 34.952 429.758 36.104 436.606C37.128 442.238 37.64 445.342 37.64 445.918C37.64 454.302 37.288 461.854 36.584 468.574C35.112 481.886 32.52 488.542 28.808 488.542Z" fill="#343434"/>
</svg>
